<svg width="24" height="25" viewBox="0 0 24 25" fill="none" xmlns="http://www.w3.org/2000/svg">
<g clip-path="url(#clip0_993_9149)">
<path d="M6 17.4482C6 17.0504 6.15804 16.6689 6.43934 16.3876C6.72064 16.1063 7.10218 15.9482 7.5 15.9482C7.89782 15.9482 8.27936 16.1063 8.56066 16.3876C8.84196 16.6689 9 17.0504 9 17.4482V18.9482C9 19.3461 8.84196 19.7276 8.56066 20.0089C8.27936 20.2902 7.89782 20.4482 7.5 20.4482C7.10218 20.4482 6.72064 20.2902 6.43934 20.0089C6.15804 19.7276 6 19.3461 6 18.9482V17.4482ZM15 11.4482C15 11.0504 15.158 10.6689 15.4393 10.3876C15.7206 10.1063 16.1022 9.94824 16.5 9.94824C16.8978 9.94824 17.2794 10.1063 17.5607 10.3876C17.842 10.6689 18 11.0504 18 11.4482V18.9482C18 19.3461 17.842 19.7276 17.5607 20.0089C17.2794 20.2902 16.8978 20.4482 16.5 20.4482C16.1022 20.4482 15.7206 20.2902 15.4393 20.0089C15.158 19.7276 15 19.3461 15 18.9482V11.4482ZM10.5 14.4482C10.5 14.0504 10.658 13.6689 10.9393 13.3876C11.2206 13.1063 11.6022 12.9482 12 12.9482C12.3978 12.9482 12.7794 13.1063 13.0607 13.3876C13.342 13.6689 13.5 14.0504 13.5 14.4482V18.9482C13.5 19.3461 13.342 19.7276 13.0607 20.0089C12.7794 20.2902 12.3978 20.4482 12 20.4482C11.6022 20.4482 11.2206 20.2902 10.9393 20.0089C10.658 19.7276 10.5 19.3461 10.5 18.9482V14.4482Z" fill="white"/>
<path d="M6 3.19824H4.5C3.70435 3.19824 2.94129 3.51431 2.37868 4.07692C1.81607 4.63953 1.5 5.40259 1.5 6.19824V21.9482C1.5 22.7439 1.81607 23.507 2.37868 24.0696C2.94129 24.6322 3.70435 24.9482 4.5 24.9482H19.5C20.2956 24.9482 21.0587 24.6322 21.6213 24.0696C22.1839 23.507 22.5 22.7439 22.5 21.9482V6.19824C22.5 5.40259 22.1839 4.63953 21.6213 4.07692C21.0587 3.51431 20.2956 3.19824 19.5 3.19824H18V4.69824H19.5C19.8978 4.69824 20.2794 4.85628 20.5607 5.13758C20.842 5.41889 21 5.80042 21 6.19824V21.9482C21 22.3461 20.842 22.7276 20.5607 23.0089C20.2794 23.2902 19.8978 23.4482 19.5 23.4482H4.5C4.10218 23.4482 3.72064 23.2902 3.43934 23.0089C3.15804 22.7276 3 22.3461 3 21.9482V6.19824C3 5.80042 3.15804 5.41889 3.43934 5.13758C3.72064 4.85628 4.10218 4.69824 4.5 4.69824H6V3.19824Z" fill="white"/>
<path d="M14.25 2.44824C14.4489 2.44824 14.6397 2.52726 14.7803 2.66791C14.921 2.80856 15 2.99933 15 3.19824V4.69824C15 4.89715 14.921 5.08792 14.7803 5.22857C14.6397 5.36922 14.4489 5.44824 14.25 5.44824H9.75C9.55109 5.44824 9.36032 5.36922 9.21967 5.22857C9.07902 5.08792 9 4.89715 9 4.69824V3.19824C9 2.99933 9.07902 2.80856 9.21967 2.66791C9.36032 2.52726 9.55109 2.44824 9.75 2.44824H14.25ZM9.75 0.948242C9.15326 0.948242 8.58097 1.1853 8.15901 1.60725C7.73705 2.02921 7.5 2.60151 7.5 3.19824V4.69824C7.5 5.29498 7.73705 5.86728 8.15901 6.28923C8.58097 6.71119 9.15326 6.94824 9.75 6.94824H14.25C14.8467 6.94824 15.419 6.71119 15.841 6.28923C16.2629 5.86728 16.5 5.29498 16.5 4.69824V3.19824C16.5 2.60151 16.2629 2.02921 15.841 1.60725C15.419 1.1853 14.8467 0.948242 14.25 0.948242L9.75 0.948242Z" fill="white"/>
</g>
<defs>
<clipPath id="clip0_993_9149">
<rect width="24" height="24" fill="white" transform="translate(0 0.948242)"/>
</clipPath>
</defs>
</svg>
