<svg width="71" height="70" viewBox="0 0 71 70" fill="none" xmlns="http://www.w3.org/2000/svg">
<g id="Group 1000006165">
<path id="Vector" d="M6.1 0H64.9C68.002 0 70.5 2.49804 70.5 5.6V64.4C70.5 67.502 68.002 70 64.9 70H6.1C2.99804 70 0.5 67.502 0.5 64.4V5.6C0.5 2.49804 2.99804 0 6.1 0Z" fill="#0C615A"/>
<g id="Group 179">
<path id="Vector_2" d="M41.9927 38.7308C41.3098 38.7601 40.5781 38.5602 39.8367 38.6577C38.71 38.8088 37.793 39.3355 36.9979 40.1401C33.3445 43.812 29.6813 47.4643 26.0182 51.1264C24.8134 52.3309 24.6183 52.3309 23.4281 51.146C21.9111 49.6343 20.399 48.1226 18.8869 46.6061C18.0285 45.7479 18.0285 45.3529 18.9113 44.4751C22.6135 40.774 26.3011 37.0582 30.0276 33.3815C31.2715 32.1527 31.7641 30.7483 31.5885 29.0074C31.0276 23.5167 35.4614 18.2502 40.9635 17.826C41.4074 17.7919 41.8561 17.7772 42.3048 17.7675C42.6999 17.7577 43.0463 17.8553 43.2121 18.26C43.3779 18.6647 43.1926 18.9622 42.9097 19.245C41.3781 20.7664 39.8611 22.3074 38.3198 23.819C37.9832 24.1506 37.9149 24.4481 38.0417 24.9016C38.5393 26.6424 39.0026 28.3881 39.4465 30.1387C39.5538 30.5581 39.7538 30.7336 40.1635 30.8361C41.9 31.2749 43.6316 31.7284 45.3485 32.2307C45.8607 32.3818 46.168 32.2599 46.5192 31.8991C47.9728 30.4118 49.4605 28.9489 50.9286 27.4714C51.2457 27.1544 51.5579 26.8618 52.0457 27.0764C52.4993 27.2763 52.5188 27.6957 52.5237 28.1151C52.5578 33.9764 47.8947 38.7113 42.0024 38.7308H41.9927Z" fill="#EEEEEE"/>
<path id="Vector_3" d="M39.0853 24.4967C39.0414 24.2821 39.2073 24.1846 39.3292 24.0627C40.456 22.9363 41.5876 21.8147 42.7095 20.6785C42.9241 20.4591 43.1143 20.4006 43.4265 20.4884C44.9435 20.9126 46.4653 21.3125 47.9872 21.7074C48.3042 21.7903 48.4798 21.9366 48.5627 22.2633C48.9578 23.8043 49.3676 25.3452 49.7968 26.8812C49.8797 27.1738 49.8017 27.3494 49.6066 27.5444C48.4847 28.6513 47.3726 29.7631 46.2702 30.8896C46.0215 31.148 45.7824 31.2065 45.4459 31.1139C43.9289 30.6896 42.4071 30.2849 40.8852 29.885C40.6365 29.8217 40.4706 29.7241 40.4023 29.4559C39.9828 27.8614 39.5536 26.2668 39.1244 24.6674C39.1097 24.6089 39.1 24.5552 39.0902 24.4967H39.0853ZM41.6754 25.7255C41.6461 27.3103 42.8558 28.5733 44.4264 28.5928C45.9629 28.6172 47.2262 27.3981 47.2604 25.8621C47.2945 24.326 46.0458 23.0436 44.4752 23.0045C43.007 22.9704 41.7095 24.2334 41.6803 25.7207L41.6754 25.7255Z" fill="#EEEEEE"/>
</g>
</g>
</svg>
