<svg width="24" height="24" viewBox="0 0 24 24" fill="none" xmlns="http://www.w3.org/2000/svg">
<g clip-path="url(#clip0_754_11973)">
<path fill-rule="evenodd" clip-rule="evenodd" d="M4.51301 4.51302C4.92794 4.09809 5.60068 4.09809 6.01561 4.51302L12.026 10.5234L18.0364 4.51302C18.4514 4.09809 19.1241 4.09809 19.539 4.51302C19.954 4.92795 19.954 5.60069 19.539 6.01562L13.5286 12.026L19.539 18.0364C19.954 18.4514 19.954 19.1241 19.539 19.539C19.1241 19.954 18.4514 19.954 18.0364 19.539L12.026 13.5286L6.01561 19.539C5.60068 19.954 4.92794 19.954 4.51301 19.539C4.09808 19.1241 4.09808 18.4514 4.51301 18.0364L10.5234 12.026L4.51301 6.01562C4.09808 5.60069 4.09808 4.92795 4.51301 4.51302Z" fill="white"/>
</g>
<defs>
<clipPath id="clip0_754_11973">
<rect width="24" height="24" fill="white"/>
</clipPath>
</defs>
</svg>
