<svg width="24" height="25" viewBox="0 0 24 25" fill="none" xmlns="http://www.w3.org/2000/svg">
<g clip-path="url(#clip0_802_4846)">
<path d="M9.75 2H14.25C14.4489 2 14.6397 2.07902 14.7803 2.21967C14.921 2.36032 15 2.55109 15 2.75V4.25H9V2.75C9 2.55109 9.07902 2.36032 9.21967 2.21967C9.36032 2.07902 9.55109 2 9.75 2ZM16.5 4.25V2.75C16.5 2.15326 16.2629 1.58097 15.841 1.15901C15.419 0.737053 14.8467 0.5 14.25 0.5L9.75 0.5C9.15326 0.5 8.58097 0.737053 8.15901 1.15901C7.73705 1.58097 7.5 2.15326 7.5 2.75V4.25H2.25C2.05109 4.25 1.86032 4.32902 1.71967 4.46967C1.57902 4.61032 1.5 4.80109 1.5 5C1.5 5.19891 1.57902 5.38968 1.71967 5.53033C1.86032 5.67098 2.05109 5.75 2.25 5.75H3.057L4.3365 21.74C4.39684 22.4918 4.73813 23.1933 5.29241 23.7048C5.84669 24.2162 6.57329 24.5002 7.3275 24.5H16.6725C17.4267 24.5002 18.1533 24.2162 18.7076 23.7048C19.2619 23.1933 19.6032 22.4918 19.6635 21.74L20.943 5.75H21.75C21.9489 5.75 22.1397 5.67098 22.2803 5.53033C22.421 5.38968 22.5 5.19891 22.5 5C22.5 4.80109 22.421 4.61032 22.2803 4.46967C22.1397 4.32902 21.9489 4.25 21.75 4.25H16.5ZM19.437 5.75L18.168 21.62C18.1378 21.9959 17.9672 22.3466 17.69 22.6024C17.4129 22.8581 17.0496 23.0001 16.6725 23H7.3275C6.9504 23.0001 6.5871 22.8581 6.30996 22.6024C6.03282 22.3466 5.86217 21.9959 5.832 21.62L4.563 5.75H19.437ZM8.2065 7.25C8.405 7.23853 8.59993 7.30634 8.74845 7.43855C8.89696 7.57075 8.9869 7.75651 8.9985 7.955L9.7485 20.705C9.75638 20.9012 9.68702 21.0926 9.55533 21.2382C9.42363 21.3838 9.24009 21.472 9.04411 21.4838C8.84814 21.4955 8.65536 21.43 8.50716 21.3012C8.35897 21.1725 8.26718 20.9907 8.2515 20.795L7.5 8.045C7.49391 7.94647 7.50733 7.84771 7.5395 7.75437C7.57166 7.66104 7.62193 7.57498 7.68743 7.50112C7.75293 7.42726 7.83236 7.36705 7.92118 7.32396C8.01 7.28087 8.10645 7.25573 8.205 7.25H8.2065ZM15.7935 7.25C15.8921 7.25573 15.9885 7.28087 16.0773 7.32396C16.1661 7.36705 16.2456 7.42726 16.3111 7.50112C16.3766 7.57498 16.4268 7.66104 16.459 7.75437C16.4912 7.84771 16.5046 7.94647 16.4985 8.045L15.7485 20.795C15.7445 20.8947 15.7207 20.9925 15.6784 21.0829C15.6361 21.1732 15.5762 21.2542 15.5022 21.3211C15.4282 21.388 15.3417 21.4395 15.2475 21.4726C15.1534 21.5056 15.0537 21.5195 14.9541 21.5135C14.8545 21.5076 14.7572 21.4818 14.6677 21.4377C14.5782 21.3936 14.4984 21.3321 14.433 21.2568C14.3676 21.1815 14.3178 21.094 14.2866 20.9992C14.2555 20.9044 14.2435 20.8044 14.2515 20.705L15.0015 7.955C15.0131 7.75651 15.103 7.57075 15.2516 7.43855C15.4001 7.30634 15.595 7.23853 15.7935 7.25ZM12 7.25C12.1989 7.25 12.3897 7.32902 12.5303 7.46967C12.671 7.61032 12.75 7.80109 12.75 8V20.75C12.75 20.9489 12.671 21.1397 12.5303 21.2803C12.3897 21.421 12.1989 21.5 12 21.5C11.8011 21.5 11.6103 21.421 11.4697 21.2803C11.329 21.1397 11.25 20.9489 11.25 20.75V8C11.25 7.80109 11.329 7.61032 11.4697 7.46967C11.6103 7.32902 11.8011 7.25 12 7.25Z" fill="#1D2132"/>
</g>
<defs>
<clipPath id="clip0_802_4846">
<rect width="24" height="24" fill="white" transform="translate(0 0.5)"/>
</clipPath>
</defs>
</svg>
