<svg width="70" height="70" viewBox="0 0 70 70" fill="none" xmlns="http://www.w3.org/2000/svg">
<g id="Group 1000006169">
<path id="Vector" d="M5.6 0H64.4C67.502 0 70 2.49804 70 5.6V64.4C70 67.502 67.502 70 64.4 70H5.6C2.49804 70 0 67.502 0 64.4V5.6C0 2.49804 2.49804 0 5.6 0Z" fill="#0C615A"/>
<path id="Vector_2" d="M34.7256 17.2421C24.9534 17.2421 17.0117 25.1585 17.0117 34.8996C17.0117 44.6407 24.9534 52.5571 34.7256 52.5571C44.4978 52.5571 52.4395 44.6407 52.4395 34.8996C52.4395 25.1305 44.4978 17.2421 34.7256 17.2421ZM34.7256 49.02C26.9247 49.02 20.5601 42.6757 20.5601 34.8996C20.5601 27.1236 26.9247 20.7793 34.7256 20.7793C42.5264 20.7793 48.8911 27.1236 48.8911 34.8996C48.8629 42.6757 42.5264 49.02 34.7256 49.02ZM36.0492 22.5197L28.0512 37.5665H33.6273V47.3076L41.3718 32.2608H36.0492V22.5197Z" fill="#EEEEEE"/>
</g>
</svg>
