<svg width="24" height="24" viewBox="0 0 24 24" fill="none" xmlns="http://www.w3.org/2000/svg">
<mask id="mask0_993_9177" style="mask-type:alpha" maskUnits="userSpaceOnUse" x="0" y="0" width="24" height="24">
<rect width="24" height="24" fill="#D9D9D9"/>
</mask>
<g mask="url(#mask0_993_9177)">
<path d="M12 15.6C12.34 15.6 12.625 15.485 12.855 15.255C13.085 15.025 13.2 14.74 13.2 14.4C13.2 14.06 13.085 13.775 12.855 13.545C12.625 13.315 12.34 13.2 12 13.2C11.66 13.2 11.375 13.315 11.145 13.545C10.915 13.775 10.8 14.06 10.8 14.4C10.8 14.74 10.915 15.025 11.145 15.255C11.375 15.485 11.66 15.6 12 15.6ZM10.8 10.8H13.2V3.6H10.8V10.8ZM0 24V2.4C0 1.74 0.235 1.175 0.705 0.705C1.175 0.235 1.74 0 2.4 0H21.6C22.26 0 22.825 0.235 23.295 0.705C23.765 1.175 24 1.74 24 2.4V16.8C24 17.46 23.765 18.025 23.295 18.495C22.825 18.965 22.26 19.2 21.6 19.2H4.8L0 24ZM3.78 16.8H21.6V2.4H2.4V18.15L3.78 16.8Z" fill="white"/>
</g>
</svg>
