<svg width="24" height="24" viewBox="0 0 24 24" fill="none" xmlns="http://www.w3.org/2000/svg">
<g clip-path="url(#clip0_932_19360)">
<path fill-rule="evenodd" clip-rule="evenodd" d="M15.75 24C15.9489 24 16.1397 23.921 16.2803 23.7803C16.421 23.6397 16.5 23.4489 16.5 23.25V17.25C16.5 17.0511 16.421 16.8603 16.2803 16.7197C16.1397 16.579 15.9489 16.5 15.75 16.5C15.5511 16.5 15.3603 16.579 15.2197 16.7197C15.079 16.8603 15 17.0511 15 17.25V19.5H2.25C2.05109 19.5 1.86032 19.579 1.71967 19.7197C1.57902 19.8603 1.5 20.0511 1.5 20.25C1.5 20.4489 1.57902 20.6397 1.71967 20.7803C1.86032 20.921 2.05109 21 2.25 21H15V23.25C15 23.4489 15.079 23.6397 15.2197 23.7803C15.3603 23.921 15.5511 24 15.75 24ZM18 20.25C18 20.4489 18.079 20.6397 18.2197 20.7803C18.3603 20.921 18.5511 21 18.75 21H21.75C21.9489 21 22.1397 20.921 22.2803 20.7803C22.421 20.6397 22.5 20.4489 22.5 20.25C22.5 20.0511 22.421 19.8603 22.2803 19.7197C22.1397 19.579 21.9489 19.5 21.75 19.5H18.75C18.5511 19.5 18.3603 19.579 18.2197 19.7197C18.079 19.8603 18 20.0511 18 20.25ZM8.25 15.75C8.44891 15.75 8.63968 15.671 8.78033 15.5303C8.92098 15.3897 9 15.1989 9 15V12.75L21.75 12.75C21.9489 12.75 22.1397 12.671 22.2803 12.5303C22.421 12.3897 22.5 12.1989 22.5 12C22.5 11.8011 22.421 11.6103 22.2803 11.4697C22.1397 11.329 21.9489 11.25 21.75 11.25L9 11.25V9C9 8.80109 8.92098 8.61032 8.78033 8.46967C8.63968 8.32902 8.44891 8.25 8.25 8.25C8.05109 8.25 7.86032 8.32902 7.71967 8.46967C7.57902 8.61032 7.5 8.80109 7.5 9V15C7.5 15.1989 7.57902 15.3897 7.71967 15.5303C7.86032 15.671 8.05109 15.75 8.25 15.75ZM1.5 12C1.5 12.1989 1.57902 12.3897 1.71967 12.5303C1.86032 12.671 2.05109 12.75 2.25 12.75H5.25C5.44891 12.75 5.63968 12.671 5.78033 12.5303C5.92098 12.3897 6 12.1989 6 12C6 11.8011 5.92098 11.6103 5.78033 11.4697C5.63968 11.329 5.44891 11.25 5.25 11.25H2.25C2.05109 11.25 1.86032 11.329 1.71967 11.4697C1.57902 11.6103 1.5 11.8011 1.5 12ZM15.75 7.5C15.9489 7.5 16.1397 7.42098 16.2803 7.28033C16.421 7.13968 16.5 6.94891 16.5 6.75V0.75C16.5 0.551088 16.421 0.360321 16.2803 0.219669C16.1397 0.0790176 15.9489 0 15.75 0C15.5511 0 15.3603 0.0790176 15.2197 0.219669C15.079 0.360321 15 0.551088 15 0.75V3H2.25C2.05109 3 1.86032 3.07902 1.71967 3.21967C1.57902 3.36032 1.5 3.55109 1.5 3.75C1.5 3.94891 1.57902 4.13968 1.71967 4.28033C1.86032 4.42098 2.05109 4.5 2.25 4.5H15V6.75C15 6.94891 15.079 7.13968 15.2197 7.28033C15.3603 7.42098 15.5511 7.5 15.75 7.5ZM18 3.75C18 3.94891 18.079 4.13968 18.2197 4.28033C18.3603 4.42098 18.5511 4.5 18.75 4.5H21.75C21.9489 4.5 22.1397 4.42098 22.2803 4.28033C22.421 4.13968 22.5 3.94891 22.5 3.75C22.5 3.55109 22.421 3.36032 22.2803 3.21967C22.1397 3.07902 21.9489 3 21.75 3H18.75C18.5511 3 18.3603 3.07902 18.2197 3.21967C18.079 3.36032 18 3.55109 18 3.75Z" fill="#A3A3A3"/>
</g>
<defs>
<clipPath id="clip0_932_19360">
<rect width="24" height="24" fill="white" transform="matrix(0 -1 1 0 0 24)"/>
</clipPath>
</defs>
</svg>
