<svg width="50" height="50" viewBox="0 0 50 50" fill="none" xmlns="http://www.w3.org/2000/svg">
<g clip-path="url(#clip0_573_11782)">
<path d="M25.5812 3.47809C25.2082 3.32858 24.7918 3.32858 24.4188 3.47809L5.76875 10.9375L13.2812 13.9406L32.5125 6.24997L25.5812 3.47809ZM36.7188 7.93434L17.4875 15.625L25 18.6281L44.2313 10.9375L36.7188 7.93434ZM46.875 13.2468L26.5625 21.3718V46.1281L46.875 38.0031V13.2468ZM23.4375 46.1312V21.3687L3.125 13.2468V38.0062L23.4375 46.1312ZM23.2594 0.574965C24.3768 0.128088 25.6232 0.128088 26.7406 0.574965L49.0187 9.48747C49.3084 9.60355 49.5567 9.80369 49.7315 10.0621C49.9064 10.3205 49.9999 10.6254 50 10.9375V38.0062C49.9996 38.6307 49.8121 39.2407 49.4618 39.7576C49.1114 40.2745 48.6143 40.6745 48.0344 40.9062L25.5812 49.8875C25.2082 50.037 24.7918 50.037 24.4188 49.8875L1.96875 40.9062C1.38828 40.675 0.890445 40.2752 0.539506 39.7582C0.188568 39.2413 0.000644779 38.631 0 38.0062L0 10.9375C7.26248e-05 10.6254 0.0935742 10.3205 0.268459 10.0621C0.443345 9.80369 0.691602 9.60355 0.98125 9.48747L23.2594 0.574965Z" fill="#0C615A"/>
</g>
<defs>
<clipPath id="clip0_573_11782">
<rect width="50" height="50" fill="white"/>
</clipPath>
</defs>
</svg>
