<svg width="70" height="70" viewBox="0 0 70 70" fill="none" xmlns="http://www.w3.org/2000/svg">
<g id="Group 1000006168">
<path id="Vector" d="M5.6 0H64.4C67.502 0 70 2.49804 70 5.6V64.4C70 67.502 67.502 70 64.4 70H5.6C2.49804 70 0 67.502 0 64.4V5.6C0 2.49804 2.49804 0 5.6 0Z" fill="#0C615A"/>
<path id="Vector_2" d="M33.4544 27.9798V20.0915H25.5409V17.1158H44.3531V20.0915H36.4114V27.9798H33.4544ZM19.0918 52.6554V37.356H22.077V39.321H29.5117V32.4152H27.5404V29.4677H42.4099V32.4433H40.4386V39.3491H47.8733V37.3841H50.8585V52.6835H47.8733V50.7184H22.0488V52.6835H19.0918V52.6554ZM22.0488 47.7427H47.7888V42.3248H37.3971V32.4433H32.4687V42.3248H22.0488V47.7427Z" fill="#EEEEEE"/>
</g>
</svg>
