<svg width="50" height="50" viewBox="0 0 50 50" fill="none" xmlns="http://www.w3.org/2000/svg">
<path d="M25 9.3125C32.2416 9.3125 38.1311 13.299 42.2988 17.4668C44.3697 19.5376 45.9742 21.6133 47.0605 23.1719C47.5854 23.925 47.9861 24.5549 48.2588 25C47.9861 25.4451 47.5854 26.075 47.0605 26.8281C45.9742 28.3867 44.3697 30.4624 42.2988 32.5332C38.1311 36.701 32.2416 40.6875 25 40.6875C17.7584 40.6875 11.8689 36.701 7.70117 32.5332C5.63034 30.4624 4.02576 28.3867 2.93945 26.8281C2.41438 26.0748 2.01296 25.4451 1.74023 25C2.01296 24.5549 2.41438 23.9252 2.93945 23.1719C4.02576 21.6133 5.63034 19.5376 7.70117 17.4668C11.8689 13.299 17.7584 9.3125 25 9.3125ZM25 9.4375C18.0295 9.4375 12.3115 13.1534 8.18555 17.167L7.79199 17.5557L7.79102 17.5566C6.03021 19.3232 4.43024 21.2425 3.00977 23.291L2.41211 24.1768L1.87109 25L2.41211 25.8232C3.9758 28.2052 5.77444 30.423 7.78711 32.4424V32.4434L7.78906 32.4453C11.9471 36.6034 17.808 40.5625 25 40.5625C31.9672 40.5625 37.6846 36.8465 41.8154 32.834L42.2109 32.4453C44.015 30.6413 45.4668 28.8288 46.5273 27.3643L46.958 26.7588L46.9629 26.752C47.1943 26.4165 47.4033 26.1077 47.5889 25.8271L48.1338 25.0029L47.5918 24.1768C46.2229 22.0916 44.6715 20.133 42.957 18.3232L42.2129 17.5566L42.2109 17.5547L41.8154 17.166C37.6849 13.1536 31.9703 9.4375 25 9.4375Z" stroke="#0C615A" stroke-width="3"/>
<path d="M25 17.1875C22.928 17.1875 20.9409 18.0106 19.4757 19.4757C18.0106 20.9409 17.1875 22.928 17.1875 25C17.1875 27.072 18.0106 29.0591 19.4757 30.5243C20.9409 31.9894 22.928 32.8125 25 32.8125C27.072 32.8125 29.0591 31.9894 30.5243 30.5243C31.9894 29.0591 32.8125 27.072 32.8125 25C32.8125 22.928 31.9894 20.9409 30.5243 19.4757C29.0591 18.0106 27.072 17.1875 25 17.1875ZM14.0625 25C14.0625 22.0992 15.2148 19.3172 17.266 17.266C19.3172 15.2148 22.0992 14.0625 25 14.0625C27.9008 14.0625 30.6828 15.2148 32.734 17.266C34.7852 19.3172 35.9375 22.0992 35.9375 25C35.9375 27.9008 34.7852 30.6828 32.734 32.734C30.6828 34.7852 27.9008 35.9375 25 35.9375C22.0992 35.9375 19.3172 34.7852 17.266 32.734C15.2148 30.6828 14.0625 27.9008 14.0625 25Z" fill="#0C615A"/>
</svg>
