<svg width="94" height="94" viewBox="0 0 94 94" fill="none" xmlns="http://www.w3.org/2000/svg">
<g filter="url(#filter0_d_791_13051)">
<circle cx="47" cy="43" r="32" fill="#EEEEEE"/>
</g>
<path d="M79 43C79 48.2624 77.7022 53.4436 75.2215 58.0847C72.7408 62.7257 69.1538 66.6834 64.7782 69.607C60.4027 72.5307 55.3736 74.3301 50.1366 74.8459C44.8995 75.3617 39.616 74.578 34.7541 72.5641C29.8923 70.5503 25.6021 67.3685 22.2637 63.3006C18.9252 59.2327 16.6415 54.4042 15.6149 49.2429C14.5882 44.0816 14.8503 38.7467 16.3779 33.7109C17.9055 28.6751 20.6515 24.0937 24.3726 20.3726L47 43H79Z" fill="#E3E3E3"/>
<mask id="path-3-inside-1_791_13051" fill="white">
<path d="M65 43C65 43 58.25 30.625 47 30.625C35.75 30.625 29 43 29 43C29 43 35.75 55.375 47 55.375C58.25 55.375 65 43 65 43ZM31.6393 43C32.7255 41.3453 33.9769 39.8052 35.3742 38.4032C38.27 35.503 42.23 32.875 47 32.875C51.77 32.875 55.7278 35.503 58.628 38.4032C60.0253 39.8052 61.2767 41.3453 62.363 43C62.234 43.195 62.0877 43.411 61.9243 43.648C61.1705 44.728 60.0568 46.168 58.628 47.5968C55.7278 50.497 51.7677 53.125 47 53.125C42.2323 53.125 38.2723 50.497 35.372 47.5968C33.9747 46.1948 32.7255 44.6547 31.6393 43Z"/>
</mask>
<path d="M65 43L67.6337 44.4366L68.4173 43L67.6337 41.5634L65 43ZM29 43L26.3663 41.5634L25.5827 43L26.3663 44.4366L29 43ZM31.6393 43L29.1314 41.3536L28.0506 43L29.1314 44.6464L31.6393 43ZM35.3742 38.4032L33.2513 36.2836L33.2494 36.2854L35.3742 38.4032ZM58.628 38.4032L60.7528 36.2854L60.7493 36.2819L58.628 38.4032ZM62.363 43L64.8651 44.6552L65.9558 43.0063L64.8709 41.3536L62.363 43ZM61.9243 43.648L64.3844 45.3649L64.389 45.3583L64.3936 45.3516L61.9243 43.648ZM35.372 47.5968L33.2472 49.7146L33.2507 49.7181L35.372 47.5968ZM65 43C67.6337 41.5634 67.6332 41.5625 67.6326 41.5615C67.6324 41.5611 67.6318 41.5601 67.6314 41.5593C67.6305 41.5577 67.6296 41.5559 67.6285 41.5539C67.6263 41.55 67.6237 41.5453 67.6207 41.5399C67.6147 41.529 67.6071 41.5152 67.5977 41.4985C67.5789 41.465 67.5535 41.42 67.5213 41.3641C67.457 41.2525 67.366 41.0975 67.2487 40.9053C67.0142 40.5212 66.6736 39.9864 66.2307 39.351C65.3487 38.0855 64.0421 36.3932 62.3401 34.6912C58.9881 31.3392 53.7669 27.625 47 27.625V33.625C51.4831 33.625 55.2619 36.0983 58.0974 38.9338C59.4892 40.3256 60.5732 41.727 61.3083 42.7818C61.6741 43.3066 61.9487 43.7386 62.1273 44.0313C62.2165 44.1774 62.2815 44.2883 62.3216 44.3579C62.3416 44.3927 62.3554 44.4172 62.3629 44.4305C62.3666 44.4372 62.3688 44.4411 62.3694 44.4422C62.3697 44.4427 62.3696 44.4425 62.369 44.4416C62.3688 44.4411 62.3684 44.4404 62.368 44.4396C62.3678 44.4392 62.3673 44.4384 62.3672 44.4382C62.3668 44.4374 62.3663 44.4366 65 43ZM47 27.625C40.2331 27.625 35.0119 31.3392 31.6599 34.6912C29.9579 36.3932 28.6513 38.0855 27.7693 39.351C27.3264 39.9864 26.9858 40.5212 26.7513 40.9053C26.634 41.0975 26.543 41.2525 26.4787 41.3641C26.4465 41.42 26.4211 41.465 26.4023 41.4985C26.3929 41.5152 26.3853 41.529 26.3793 41.5399C26.3763 41.5453 26.3737 41.55 26.3715 41.5539C26.3704 41.5559 26.3695 41.5577 26.3686 41.5593C26.3682 41.5601 26.3676 41.5611 26.3674 41.5615C26.3668 41.5625 26.3663 41.5634 29 43C31.6337 44.4366 31.6332 44.4374 31.6328 44.4382C31.6327 44.4384 31.6322 44.4392 31.632 44.4396C31.6316 44.4404 31.6312 44.4411 31.631 44.4416C31.6304 44.4425 31.6303 44.4427 31.6306 44.4422C31.6312 44.4411 31.6334 44.4372 31.6371 44.4305C31.6446 44.4172 31.6584 44.3927 31.6784 44.3579C31.7185 44.2883 31.7835 44.1774 31.8727 44.0313C32.0513 43.7386 32.3259 43.3066 32.6917 42.7818C33.4268 41.727 34.5108 40.3256 35.9026 38.9338C38.7381 36.0983 42.5169 33.625 47 33.625V27.625ZM29 43C26.3663 44.4366 26.3668 44.4375 26.3674 44.4385C26.3676 44.4389 26.3682 44.4399 26.3686 44.4407C26.3695 44.4423 26.3704 44.4441 26.3715 44.4461C26.3737 44.45 26.3763 44.4547 26.3793 44.4601C26.3853 44.471 26.3929 44.4848 26.4023 44.5015C26.4211 44.535 26.4465 44.58 26.4787 44.6359C26.543 44.7475 26.634 44.9025 26.7513 45.0947C26.9858 45.4788 27.3264 46.0136 27.7693 46.649C28.6513 47.9145 29.9579 49.6068 31.6599 51.3088C35.0119 54.6608 40.2331 58.375 47 58.375V52.375C42.5169 52.375 38.7381 49.9017 35.9026 47.0662C34.5108 45.6744 33.4268 44.273 32.6917 43.2182C32.3259 42.6934 32.0513 42.2614 31.8727 41.9687C31.7835 41.8226 31.7185 41.7117 31.6784 41.6421C31.6584 41.6073 31.6446 41.5828 31.6371 41.5695C31.6334 41.5628 31.6312 41.5589 31.6306 41.5578C31.6303 41.5573 31.6304 41.5575 31.631 41.5584C31.6312 41.5589 31.6316 41.5596 31.632 41.5604C31.6322 41.5608 31.6327 41.5616 31.6328 41.5618C31.6332 41.5626 31.6337 41.5634 29 43ZM47 58.375C53.7669 58.375 58.9881 54.6608 62.3401 51.3088C64.0421 49.6068 65.3487 47.9145 66.2307 46.649C66.6736 46.0136 67.0142 45.4788 67.2487 45.0947C67.366 44.9025 67.457 44.7475 67.5213 44.6359C67.5535 44.58 67.5789 44.535 67.5977 44.5015C67.6071 44.4848 67.6147 44.471 67.6207 44.4601C67.6237 44.4547 67.6263 44.45 67.6285 44.4461C67.6296 44.4441 67.6305 44.4423 67.6314 44.4407C67.6318 44.4399 67.6324 44.4389 67.6326 44.4385C67.6332 44.4375 67.6337 44.4366 65 43C62.3663 41.5634 62.3668 41.5626 62.3672 41.5618C62.3673 41.5616 62.3678 41.5608 62.368 41.5604C62.3684 41.5596 62.3688 41.5589 62.369 41.5584C62.3696 41.5575 62.3697 41.5573 62.3694 41.5578C62.3688 41.5589 62.3666 41.5628 62.3629 41.5695C62.3554 41.5828 62.3416 41.6073 62.3216 41.6421C62.2815 41.7117 62.2165 41.8226 62.1273 41.9687C61.9487 42.2614 61.6741 42.6934 61.3083 43.2182C60.5732 44.273 59.4892 45.6744 58.0974 47.0662C55.2619 49.9017 51.4831 52.375 47 52.375V58.375ZM34.1471 44.6464C35.122 43.1614 36.245 41.7792 37.4991 40.5211L33.2494 36.2854C31.7088 37.8311 30.329 39.5292 29.1314 41.3536L34.1471 44.6464ZM37.4972 40.5229C40.1315 37.8845 43.3701 35.875 47 35.875V29.875C41.0899 29.875 36.4085 33.1215 33.2513 36.2836L37.4972 40.5229ZM47 35.875C50.6295 35.875 53.8661 37.884 56.5067 40.5246L60.7493 36.2819C57.5894 33.122 52.9105 29.875 47 29.875V35.875ZM56.5032 40.5211C57.7572 41.7792 58.8803 43.1614 59.8551 44.6464L64.8709 41.3536C63.6732 39.5292 62.2934 37.8311 60.7528 36.2854L56.5032 40.5211ZM59.8609 41.3448C59.7448 41.5204 59.6097 41.72 59.4549 41.9444L64.3936 45.3516C64.5658 45.102 64.7232 44.8696 64.8651 44.6552L59.8609 41.3448ZM59.4641 41.9311C58.783 42.907 57.7803 44.2018 56.5067 45.4754L60.7493 49.7181C62.3332 48.1342 63.558 46.549 64.3844 45.3649L59.4641 41.9311ZM56.5067 45.4754C53.8663 48.1158 50.6274 50.125 47 50.125V56.125C52.9081 56.125 57.5892 52.8782 60.7493 49.7181L56.5067 45.4754ZM47 50.125C43.3726 50.125 40.1337 48.1158 37.4933 45.4754L33.2507 49.7181C36.4108 52.8782 41.0919 56.125 47 56.125V50.125ZM37.4968 45.4789C36.244 44.222 35.123 42.8401 34.1471 41.3536L29.1314 44.6464C30.3281 46.4693 31.7053 48.1676 33.2472 49.7146L37.4968 45.4789Z" fill="#0C615A" mask="url(#path-3-inside-1_791_13051)"/>
<path d="M47 37.375C45.5082 37.375 44.0774 37.9676 43.0225 39.0225C41.9676 40.0774 41.375 41.5082 41.375 43C41.375 44.4918 41.9676 45.9226 43.0225 46.9775C44.0774 48.0324 45.5082 48.625 47 48.625C48.4918 48.625 49.9226 48.0324 50.9775 46.9775C52.0324 45.9226 52.625 44.4918 52.625 43C52.625 41.5082 52.0324 40.0774 50.9775 39.0225C49.9226 37.9676 48.4918 37.375 47 37.375ZM39.125 43C39.125 40.9114 39.9547 38.9084 41.4315 37.4315C42.9084 35.9547 44.9114 35.125 47 35.125C49.0886 35.125 51.0916 35.9547 52.5685 37.4315C54.0453 38.9084 54.875 40.9114 54.875 43C54.875 45.0886 54.0453 47.0916 52.5685 48.5685C51.0916 50.0453 49.0886 50.875 47 50.875C44.9114 50.875 42.9084 50.0453 41.4315 48.5685C39.9547 47.0916 39.125 45.0886 39.125 43Z" fill="#0C615A"/>
<defs>
<filter id="filter0_d_791_13051" x="0" y="0" width="94" height="94" filterUnits="userSpaceOnUse" color-interpolation-filters="sRGB">
<feFlood flood-opacity="0" result="BackgroundImageFix"/>
<feColorMatrix in="SourceAlpha" type="matrix" values="0 0 0 0 0 0 0 0 0 0 0 0 0 0 0 0 0 0 127 0" result="hardAlpha"/>
<feOffset dy="4"/>
<feGaussianBlur stdDeviation="7.5"/>
<feComposite in2="hardAlpha" operator="out"/>
<feColorMatrix type="matrix" values="0 0 0 0 0 0 0 0 0 0 0 0 0 0 0 0 0 0 0.2 0"/>
<feBlend mode="normal" in2="BackgroundImageFix" result="effect1_dropShadow_791_13051"/>
<feBlend mode="normal" in="SourceGraphic" in2="effect1_dropShadow_791_13051" result="shape"/>
</filter>
</defs>
</svg>
