<svg width="71" height="70" viewBox="0 0 71 70" fill="none" xmlns="http://www.w3.org/2000/svg">
<g id="Group 1000006161">
<path id="Vector" d="M6.1 0H64.9C68.002 0 70.5 2.49804 70.5 5.6V64.4C70.5 67.502 68.002 70 64.9 70H6.1C2.99804 70 0.5 67.502 0.5 64.4V5.6C0.5 2.49804 2.99804 0 6.1 0Z" fill="#0C615A"/>
<path id="Vector_2" d="M52.3113 18.5531V51.4466H19.4178V18.5531H52.3113ZM52.3113 13.854H19.4178C16.8445 13.854 14.7188 15.9798 14.7188 18.5531V51.4466C14.7188 54.0199 16.8445 56.1457 19.4178 56.1457H52.3113C54.8846 56.1457 57.0104 54.0199 57.0104 51.4466V18.5531C57.0104 15.9425 54.8846 13.854 52.3113 13.854ZM31.1655 49.0971V39.6989H33.515V33.8064C33.515 31.2331 31.3893 29.1073 28.816 29.1073H26.4664C23.8931 29.1073 21.7674 31.2331 21.7674 33.8064V39.6989H24.1169V49.0971H31.1655ZM27.6226 26.7578C29.2262 26.7578 30.5688 25.4525 30.5688 23.8116C30.5688 22.2079 29.2635 20.8653 27.6226 20.8653C26.0189 20.8653 24.6763 22.1706 24.6763 23.8116C24.6763 25.4525 26.0189 26.7578 27.6226 26.7578ZM49.9618 32.6503L44.0693 23.2521L38.1768 32.6503H49.9618ZM38.2141 37.3494L44.1066 46.7475L49.9991 37.3494H38.2141Z" fill="#EEEEEE"/>
</g>
</svg>
