<svg width="19" height="22" viewBox="0 0 19 22" fill="none" xmlns="http://www.w3.org/2000/svg">
<path d="M9.09667 11.6236C8.74868 11.6249 8.41077 11.7406 8.13488 11.9527C7.85899 12.1648 7.66039 12.4616 7.56962 12.7975C7.47886 13.1335 7.50094 13.4899 7.63248 13.8121C7.76402 14.1343 7.99774 14.4044 8.2977 14.5808V16.8462H9.91514V14.5808C10.1525 14.4404 10.3494 14.241 10.4869 14.002C10.6243 13.7629 10.6976 13.4924 10.6995 13.2167V13.2167C10.6995 13.0066 10.658 12.7987 10.5773 12.6048C10.4966 12.4109 10.3784 12.2348 10.2295 12.0867C10.0805 11.9387 9.90372 11.8215 9.70931 11.7421C9.5149 11.6626 9.3067 11.6223 9.09667 11.6236V11.6236Z" stroke="#0C615A" stroke-linecap="round" stroke-linejoin="round"/>
<path d="M15.0844 7.96487H3.10462C1.94227 7.96487 1 8.90714 1 10.0695V18.3954C1 19.5577 1.94227 20.5 3.10462 20.5H15.0844C16.2467 20.5 17.189 19.5577 17.189 18.3954V10.0695C17.189 8.90714 16.2467 7.96487 15.0844 7.96487Z" stroke="#0C615A" stroke-width="2" stroke-linecap="round" stroke-linejoin="round"/>
<path d="M3.9082 7.96487V6.69333C3.9082 5.31598 4.45536 3.99503 5.4293 3.02109C6.40323 2.04715 7.72418 1.5 9.10154 1.5C10.4789 1.5 11.7998 2.04715 12.7738 3.02109C13.7477 3.99503 14.2949 5.31598 14.2949 6.69333V7.96487" stroke="#0C615A" stroke-width="2" stroke-linecap="round" stroke-linejoin="round"/>
</svg>
