<svg width="25" height="25" viewBox="0 0 25 25" fill="none" xmlns="http://www.w3.org/2000/svg">
<g clip-path="url(#clip0_993_9187)">
<path fill-rule="evenodd" clip-rule="evenodd" d="M9.5 18.777C9.5 18.9759 9.57902 19.1667 9.71967 19.3073C9.86032 19.448 10.0511 19.527 10.25 19.527H22.25C22.4489 19.527 22.6397 19.448 22.7803 19.3073C22.921 19.1667 23 18.9759 23 18.777V5.27698C23 5.07807 22.921 4.8873 22.7803 4.74665C22.6397 4.606 22.4489 4.52698 22.25 4.52698H10.25C10.0511 4.52698 9.86032 4.606 9.71967 4.74665C9.57902 4.8873 9.5 5.07807 9.5 5.27698V8.27698C9.5 8.47589 9.42098 8.66666 9.28033 8.80731C9.13968 8.94796 8.94891 9.02698 8.75 9.02698C8.55109 9.02698 8.36032 8.94796 8.21967 8.80731C8.07902 8.66666 8 8.47589 8 8.27698V5.27698C8 4.68024 8.23705 4.10794 8.65901 3.68599C9.08097 3.26403 9.65326 3.02698 10.25 3.02698H22.25C22.8467 3.02698 23.419 3.26403 23.841 3.68599C24.2629 4.10794 24.5 4.68024 24.5 5.27698V18.777C24.5 19.3737 24.2629 19.946 23.841 20.368C23.419 20.7899 22.8467 21.027 22.25 21.027H10.25C9.65326 21.027 9.08097 20.7899 8.65901 20.368C8.23705 19.946 8 19.3737 8 18.777V15.777C8 15.5781 8.07902 15.3873 8.21967 15.2466C8.36032 15.106 8.55109 15.027 8.75 15.027C8.94891 15.027 9.13968 15.106 9.28033 15.2466C9.42098 15.3873 9.5 15.5781 9.5 15.777V18.777Z" fill="white"/>
<path fill-rule="evenodd" clip-rule="evenodd" d="M0.719 12.5579C0.649155 12.4883 0.593741 12.4055 0.555931 12.3144C0.518121 12.2233 0.498659 12.1256 0.498659 12.0269C0.498659 11.9283 0.518121 11.8306 0.555931 11.7395C0.593741 11.6484 0.649155 11.5656 0.719 11.4959L5.219 6.99595C5.28873 6.92622 5.37152 6.8709 5.46262 6.83316C5.55373 6.79542 5.65138 6.776 5.75 6.776C5.84862 6.776 5.94627 6.79542 6.03737 6.83316C6.12848 6.8709 6.21127 6.92622 6.281 6.99595C6.35073 7.06568 6.40605 7.14846 6.44378 7.23957C6.48152 7.33068 6.50095 7.42833 6.50095 7.52695C6.50095 7.62556 6.48152 7.72321 6.44378 7.81432C6.40605 7.90543 6.35073 7.98822 6.281 8.05795L3.0605 11.2769H16.25C16.4489 11.2769 16.6397 11.356 16.7803 11.4966C16.921 11.6373 17 11.828 17 12.0269C17 12.2259 16.921 12.4166 16.7803 12.5573C16.6397 12.6979 16.4489 12.7769 16.25 12.7769H3.0605L6.281 15.9959C6.35073 16.0657 6.40605 16.1485 6.44378 16.2396C6.48152 16.3307 6.50095 16.4283 6.50095 16.5269C6.50095 16.6256 6.48152 16.7232 6.44378 16.8143C6.40605 16.9054 6.35073 16.9882 6.281 17.0579C6.21127 17.1277 6.12848 17.183 6.03737 17.2207C5.94627 17.2585 5.84862 17.2779 5.75 17.2779C5.65138 17.2779 5.55373 17.2585 5.46262 17.2207C5.37152 17.183 5.28873 17.1277 5.219 17.0579L0.719 12.5579Z" fill="white"/>
</g>
<defs>
<clipPath id="clip0_993_9187">
<rect width="24" height="24" fill="white" transform="translate(0.5 0.0269775)"/>
</clipPath>
</defs>
</svg>
