<svg width="50" height="50" viewBox="0 0 50 50" fill="none" xmlns="http://www.w3.org/2000/svg">
<g clip-path="url(#clip0_573_11774)">
<path d="M39.0496 25.0001C39.05 27.119 38.5716 29.2106 37.65 31.1186C36.7285 33.0267 35.3876 34.7018 33.7277 36.0188L29.6777 26.5626L38.9246 23.0938C39.0079 23.7188 39.0496 24.3542 39.0496 25.0001Z" fill="#0C615A"/>
<path d="M50 25C50 31.6304 47.3661 37.9893 42.6777 42.6777C37.9893 47.3661 31.6304 50 25 50C18.3696 50 12.0107 47.3661 7.32233 42.6777C2.63392 37.9893 0 31.6304 0 25C0 18.3696 2.63392 12.0107 7.32233 7.32233C12.0107 2.63392 18.3696 0 25 0C31.6304 0 37.9893 2.63392 42.6777 7.32233C47.3661 12.0107 50 18.3696 50 25ZM46.875 25C46.8735 21.6833 46.1178 18.4104 44.6651 15.4289C43.2124 12.4473 41.1008 9.83501 38.4899 7.7897C35.8789 5.74438 32.8371 4.31954 29.5944 3.62294C26.3518 2.92634 22.9931 2.97622 19.7726 3.76879C16.552 4.56137 13.5538 6.0759 11.0048 8.19784C8.45573 10.3198 6.42257 12.9936 5.05906 16.017C3.69555 19.0404 3.03739 22.3343 3.13435 25.6495C3.23132 28.9648 4.08086 32.2146 5.61875 35.1531L11.8313 29.975C10.6703 26.9135 10.614 23.5429 11.6721 20.4443C12.7303 17.3458 14.8364 14.7136 17.6275 13.0016C20.4185 11.2897 23.7194 10.6053 26.961 11.0665C30.2026 11.5278 33.1816 13.1057 35.3844 15.5281L23.4281 20.3125L26.5531 28.125L30.7188 37.8438C28.9688 38.6281 27.0312 39.0625 24.9906 39.0625C23.2912 39.0635 21.6056 38.7565 20.0156 38.1562L14.8344 44.375C18.1687 46.125 21.8983 46.9845 25.6622 46.8705C29.4262 46.7565 33.0969 45.6728 36.3192 43.7243C39.5415 41.7757 42.2063 39.0284 44.0555 35.7481C45.9048 32.4678 46.876 28.7656 46.875 25ZM20.9531 25.4344C21.0441 25.2987 21.0903 25.1379 21.0852 24.9746C21.0801 24.8113 21.0239 24.6538 20.9246 24.5241C20.8252 24.3944 20.6877 24.2991 20.5314 24.2516C20.3751 24.2041 20.2078 24.2068 20.0531 24.2594L15.3656 25.8219L15.8625 27.3031L18.3875 26.4594L16.5281 29.2531C16.4377 29.3886 16.3918 29.5489 16.397 29.7117C16.4021 29.8745 16.458 30.0316 16.5568 30.161C16.6556 30.2905 16.7924 30.3858 16.9481 30.4337C17.1038 30.4816 17.2705 30.4797 17.425 30.4281L19.95 29.5844L18.0906 32.3781C18.0002 32.5136 17.9543 32.6739 17.9595 32.8367C17.9646 32.9995 18.0205 33.1566 18.1193 33.286C18.2181 33.4155 18.3549 33.5108 18.5106 33.5587C18.6663 33.6066 18.833 33.6047 18.9875 33.5531L23.675 31.9906L23.1781 30.5094L20.6531 31.3531L22.5156 28.5594C22.6066 28.4237 22.6528 28.2629 22.6477 28.0996C22.6426 27.9363 22.5864 27.7788 22.4871 27.6491C22.3877 27.5194 22.2502 27.4241 22.0939 27.3766C21.9376 27.3291 21.7703 27.3318 21.6156 27.3844L19.0906 28.2281L20.9531 25.4344Z" fill="#0C615A"/>
</g>
<defs>
<clipPath id="clip0_573_11774">
<rect width="50" height="50" fill="white"/>
</clipPath>
</defs>
</svg>
