<svg width="71" height="70" viewBox="0 0 71 70" fill="none" xmlns="http://www.w3.org/2000/svg">
<g id="Group 1000006162">
<path id="Vector" d="M6.1 0H64.9C68.002 0 70.5 2.49804 70.5 5.6V64.4C70.5 67.502 68.002 70 64.9 70H6.1C2.99804 70 0.5 67.502 0.5 64.4V5.6C0.5 2.49804 2.99804 0 6.1 0Z" fill="#0C615A"/>
<g id="Group 178">
<path id="Vector_2" d="M52.8924 46.6655L43.4864 37.2893H41.7403L37.2344 41.7809V43.5214L46.6405 52.8975C47.3445 53.5994 48.4429 53.5994 49.1469 52.8975L52.9206 49.1359C53.5965 48.4902 53.5965 47.3392 52.8924 46.6655ZM47.8796 49.1639L40.3603 41.6686L41.6276 40.4054L49.1469 47.9007L47.8796 49.1639Z" fill="#EEEEEE"/>
<path id="Vector_3" d="M45.2036 32.5451L47.7101 30.0467L51.4837 33.8084C53.5677 31.731 53.5677 28.3904 51.4837 26.3131L45.2036 20.053L42.6972 22.5514V17.5545L41.4581 16.2913L35.178 22.5514L36.4453 23.8146H41.4581L38.9517 26.3131L40.8385 28.1939L35.713 33.3031L28.3909 26.0043V23.5058L23.0402 18.1721L18.0273 23.169L23.4063 28.5308H25.9127L33.2348 35.8296L31.7422 37.3455H27.9685L18.5624 46.7217C17.8584 47.4235 17.8584 48.5183 18.5624 49.2201L22.3361 52.9818C23.0402 53.6836 24.1385 53.6836 24.8425 52.9818L34.2486 43.6056V39.8439L43.4013 30.7204L45.2036 32.5451ZM31.0663 41.6686L23.5471 49.1639L22.2798 47.9007L29.799 40.4054L31.0663 41.6686Z" fill="#EEEEEE"/>
</g>
</g>
</svg>
