<svg width="71" height="70" viewBox="0 0 71 70" fill="none" xmlns="http://www.w3.org/2000/svg">
<g id="Group 1000006167">
<path id="Vector" d="M6.1 0H64.9C68.002 0 70.5 2.49804 70.5 5.6V64.4C70.5 67.502 68.002 70 64.9 70H6.1C2.99804 70 0.5 67.502 0.5 64.4V5.6C0.5 2.49804 2.99804 0 6.1 0Z" fill="#0C615A"/>
<g id="directions_boat">
<mask id="mask0_991_796" style="mask-type:alpha" maskUnits="userSpaceOnUse" x="13" y="12" width="45" height="45">
<rect id="Bounding box" x="13.625" y="12.9615" width="43.75" height="43.75" fill="#D9D9D9"/>
</mask>
<g mask="url(#mask0_991_796)">
<path id="directions_boat_2" d="M20.8262 47.5969L17.3626 35.3833C17.2715 35.0187 17.3095 34.5934 17.4766 34.1073C17.6437 33.6212 18.0007 33.287 18.5475 33.1047L20.9173 32.2844V23.8989C20.9173 22.8963 21.2743 22.0381 21.9883 21.3241C22.7023 20.6101 23.5605 20.2531 24.5632 20.2531H30.0319V14.7844H40.9694V20.2531H46.4382C47.4408 20.2531 48.299 20.6101 49.013 21.3241C49.727 22.0381 50.084 22.8963 50.084 23.8989V32.2844L52.4538 33.1047C53.0918 33.3477 53.4716 33.7047 53.5931 34.1756C53.7146 34.6466 53.7298 35.0491 53.6387 35.3833L50.1751 47.5969C48.656 47.5969 47.2737 47.2399 46.028 46.5259C44.7823 45.8119 43.7038 44.9536 42.7923 43.951C41.8809 44.9536 40.8023 45.8119 39.5566 46.5259C38.311 47.2399 36.959 47.5969 35.5007 47.5969C34.0423 47.5969 32.6903 47.2399 31.4447 46.5259C30.199 45.8119 29.1204 44.9536 28.209 43.951C27.2975 44.9536 26.219 45.8119 24.9733 46.5259C23.7276 47.2399 22.3453 47.5969 20.8262 47.5969ZM17.2715 54.8885V51.2427H20.9173C22.1934 51.2427 23.4542 51.0452 24.6999 50.6503C25.9455 50.2553 27.1152 49.6628 28.209 48.8729C29.3027 49.6628 30.4724 50.2401 31.7181 50.6047C32.9638 50.9693 34.2246 51.1516 35.5007 51.1516C36.7767 51.1516 38.0375 50.9693 39.2832 50.6047C40.5289 50.2401 41.6986 49.6628 42.7923 48.8729C43.8861 49.6628 45.0558 50.2553 46.3014 50.6503C47.5471 51.0452 48.8079 51.2427 50.084 51.2427H53.7298V54.8885H50.084C48.8079 54.8885 47.5623 54.7366 46.347 54.4328C45.1317 54.129 43.9468 53.6733 42.7923 53.0656C41.6378 53.6733 40.4453 54.129 39.2148 54.4328C37.9844 54.7366 36.7463 54.8885 35.5007 54.8885C34.255 54.8885 33.0169 54.7366 31.7865 54.4328C30.556 54.129 29.3635 53.6733 28.209 53.0656C27.0545 53.6733 25.8696 54.129 24.6543 54.4328C23.439 54.7366 22.1934 54.8885 20.9173 54.8885H17.2715ZM24.5632 31.0995L35.5007 27.5448L46.4382 31.0995V23.8989H24.5632V31.0995ZM35.5007 43.951C36.9286 43.951 38.1363 43.4497 39.1237 42.4471C40.1111 41.4445 41.334 40.0925 42.7923 38.3911C44.2507 40.0318 45.2381 41.1559 45.7546 41.7635C46.271 42.3712 46.8939 42.8877 47.623 43.313L49.6283 36.0213L35.5007 31.3729L21.2819 36.0213L23.3783 43.2219C24.1074 42.7965 24.7303 42.3104 25.2467 41.7635C25.7632 41.2167 26.7507 40.0925 28.209 38.3911C29.7281 40.1229 30.9661 41.4825 31.9232 42.4699C32.8802 43.4573 34.0727 43.951 35.5007 43.951Z" fill="#EEEEEE"/>
</g>
</g>
</g>
</svg>
