<svg width="94" height="94" viewBox="0 0 94 94" fill="none" xmlns="http://www.w3.org/2000/svg">
<g filter="url(#filter0_d_791_13070)">
<circle cx="47" cy="43" r="32" fill="#EEEEEE"/>
</g>
<g clip-path="url(#clip0_791_13070)">
<path d="M33.5 47.5H40.25C40.8467 47.5 41.419 47.7371 41.841 48.159C42.2629 48.581 42.5 49.1533 42.5 49.75V56.5C42.5 57.0967 42.2629 57.669 41.841 58.091C41.419 58.5129 40.8467 58.75 40.25 58.75H33.5C32.9033 58.75 32.331 58.5129 31.909 58.091C31.4871 57.669 31.25 57.0967 31.25 56.5V49.75C31.25 49.1533 31.4871 48.581 31.909 48.159C32.331 47.7371 32.9033 47.5 33.5 47.5ZM53.75 27.25H60.5C61.0967 27.25 61.669 27.4871 62.091 27.909C62.5129 28.331 62.75 28.9033 62.75 29.5V36.25C62.75 36.8467 62.5129 37.419 62.091 37.841C61.669 38.2629 61.0967 38.5 60.5 38.5H53.75C53.1533 38.5 52.581 38.2629 52.159 37.841C51.7371 37.419 51.5 36.8467 51.5 36.25V29.5C51.5 28.9033 51.7371 28.331 52.159 27.909C52.581 27.4871 53.1533 27.25 53.75 27.25ZM53.75 47.5C53.1533 47.5 52.581 47.7371 52.159 48.159C51.7371 48.581 51.5 49.1533 51.5 49.75V56.5C51.5 57.0967 51.7371 57.669 52.159 58.091C52.581 58.5129 53.1533 58.75 53.75 58.75H60.5C61.0967 58.75 61.669 58.5129 62.091 58.091C62.5129 57.669 62.75 57.0967 62.75 56.5V49.75C62.75 49.1533 62.5129 48.581 62.091 48.159C61.669 47.7371 61.0967 47.5 60.5 47.5H53.75ZM53.75 25C52.5565 25 51.4119 25.4741 50.568 26.318C49.7241 27.1619 49.25 28.3065 49.25 29.5V36.25C49.25 37.4435 49.7241 38.5881 50.568 39.432C51.4119 40.2759 52.5565 40.75 53.75 40.75H60.5C61.6935 40.75 62.8381 40.2759 63.682 39.432C64.5259 38.5881 65 37.4435 65 36.25V29.5C65 28.3065 64.5259 27.1619 63.682 26.318C62.8381 25.4741 61.6935 25 60.5 25H53.75ZM33.5 45.25C32.3065 45.25 31.1619 45.7241 30.318 46.568C29.4741 47.4119 29 48.5565 29 49.75V56.5C29 57.6935 29.4741 58.8381 30.318 59.682C31.1619 60.5259 32.3065 61 33.5 61H40.25C41.4435 61 42.5881 60.5259 43.432 59.682C44.2759 58.8381 44.75 57.6935 44.75 56.5V49.75C44.75 48.5565 44.2759 47.4119 43.432 46.568C42.5881 45.7241 41.4435 45.25 40.25 45.25H33.5ZM49.25 49.75C49.25 48.5565 49.7241 47.4119 50.568 46.568C51.4119 45.7241 52.5565 45.25 53.75 45.25H60.5C61.6935 45.25 62.8381 45.7241 63.682 46.568C64.5259 47.4119 65 48.5565 65 49.75V56.5C65 57.6935 64.5259 58.8381 63.682 59.682C62.8381 60.5259 61.6935 61 60.5 61H53.75C52.5565 61 51.4119 60.5259 50.568 59.682C49.7241 58.8381 49.25 57.6935 49.25 56.5V49.75ZM29 29.5C29 28.3065 29.4741 27.1619 30.318 26.318C31.1619 25.4741 32.3065 25 33.5 25H40.25C41.4435 25 42.5881 25.4741 43.432 26.318C44.2759 27.1619 44.75 28.3065 44.75 29.5V36.25C44.75 37.4435 44.2759 38.5881 43.432 39.432C42.5881 40.2759 41.4435 40.75 40.25 40.75H33.5C32.3065 40.75 31.1619 40.2759 30.318 39.432C29.4741 38.5881 29 37.4435 29 36.25V29.5ZM41.0465 31.4215C41.1511 31.3169 41.2341 31.1927 41.2907 31.0561C41.3473 30.9194 41.3764 30.7729 41.3764 30.625C41.3764 30.4771 41.3473 30.3306 41.2907 30.1939C41.2341 30.0573 41.1511 29.9331 41.0465 29.8285C40.9419 29.7239 40.8177 29.6409 40.6811 29.5843C40.5444 29.5277 40.3979 29.4986 40.25 29.4986C40.1021 29.4986 39.9556 29.5277 39.8189 29.5843C39.6823 29.6409 39.5581 29.7239 39.4535 29.8285L35.75 33.5343L34.2965 32.0785C34.1919 31.9739 34.0677 31.8909 33.9311 31.8343C33.7944 31.7777 33.6479 31.7486 33.5 31.7486C33.3521 31.7486 33.2056 31.7777 33.0689 31.8343C32.9323 31.8909 32.8081 31.9739 32.7035 32.0785C32.5989 32.1831 32.5159 32.3073 32.4593 32.4439C32.4027 32.5806 32.3736 32.7271 32.3736 32.875C32.3736 33.0229 32.4027 33.1694 32.4593 33.3061C32.5159 33.4427 32.5989 33.5669 32.7035 33.6715L34.9535 35.9215C35.058 36.0263 35.1821 36.1094 35.3188 36.1661C35.4555 36.2228 35.602 36.252 35.75 36.252C35.898 36.252 36.0445 36.2228 36.1812 36.1661C36.3179 36.1094 36.442 36.0263 36.5465 35.9215L41.0465 31.4215Z" fill="#0C615A"/>
</g>
<defs>
<filter id="filter0_d_791_13070" x="0" y="0" width="94" height="94" filterUnits="userSpaceOnUse" color-interpolation-filters="sRGB">
<feFlood flood-opacity="0" result="BackgroundImageFix"/>
<feColorMatrix in="SourceAlpha" type="matrix" values="0 0 0 0 0 0 0 0 0 0 0 0 0 0 0 0 0 0 127 0" result="hardAlpha"/>
<feOffset dy="4"/>
<feGaussianBlur stdDeviation="7.5"/>
<feComposite in2="hardAlpha" operator="out"/>
<feColorMatrix type="matrix" values="0 0 0 0 0 0 0 0 0 0 0 0 0 0 0 0 0 0 0.2 0"/>
<feBlend mode="normal" in2="BackgroundImageFix" result="effect1_dropShadow_791_13070"/>
<feBlend mode="normal" in="SourceGraphic" in2="effect1_dropShadow_791_13070" result="shape"/>
</filter>
<clipPath id="clip0_791_13070">
<rect width="36" height="36" fill="white" transform="translate(29 25)"/>
</clipPath>
</defs>
</svg>
