<svg width="25" height="24" viewBox="0 0 25 24" fill="none" xmlns="http://www.w3.org/2000/svg">
<g clip-path="url(#clip0_993_4616)">
<path d="M12.5 11.5C14.0913 11.5 15.6174 10.8942 16.7426 9.81586C17.8679 8.73753 18.5 7.27499 18.5 5.75C18.5 4.22501 17.8679 2.76247 16.7426 1.68414C15.6174 0.605802 14.0913 0 12.5 0C10.9087 0 9.38258 0.605802 8.25736 1.68414C7.13214 2.76247 6.5 4.22501 6.5 5.75C6.5 7.27499 7.13214 8.73753 8.25736 9.81586C9.38258 10.8942 10.9087 11.5 12.5 11.5ZM16.5 5.75C16.5 6.76666 16.0786 7.74169 15.3284 8.46058C14.5783 9.17947 13.5609 9.58333 12.5 9.58333C11.4391 9.58333 10.4217 9.17947 9.67157 8.46058C8.92143 7.74169 8.5 6.76666 8.5 5.75C8.5 4.73334 8.92143 3.75831 9.67157 3.03942C10.4217 2.32053 11.4391 1.91667 12.5 1.91667C13.5609 1.91667 14.5783 2.32053 15.3284 3.03942C16.0786 3.75831 16.5 4.73334 16.5 5.75ZM24.5 21.0833C24.5 23 22.5 23 22.5 23H2.5C2.5 23 0.5 23 0.5 21.0833C0.5 19.1667 2.5 13.4167 12.5 13.4167C22.5 13.4167 24.5 19.1667 24.5 21.0833ZM22.5 21.0757C22.498 20.6042 22.192 19.1858 20.836 17.8863C19.532 16.6367 17.078 15.3333 12.5 15.3333C7.922 15.3333 5.468 16.6367 4.164 17.8863C2.808 19.1858 2.504 20.6042 2.5 21.0757H22.5Z" fill="#0C615A"/>
</g>
<defs>
<clipPath id="clip0_993_4616">
<rect width="24" height="24" fill="white" transform="translate(0.5)"/>
</clipPath>
</defs>
</svg>
