<svg width="94" height="94" viewBox="0 0 94 94" fill="none" xmlns="http://www.w3.org/2000/svg">
<g filter="url(#filter0_d_791_13014)">
<circle cx="47" cy="43" r="32" fill="#EEEEEE"/>
</g>
<g clip-path="url(#clip0_791_13014)">
<mask id="path-2-inside-1_791_13014" fill="white">
<path d="M47.0003 34.1832L45.387 32.525C41.6003 28.6325 34.6568 29.9757 32.1503 34.8695C31.0658 36.989 30.7553 39.977 32.3933 43.7502H29.9678C25.1798 30.932 39.339 23.8827 46.6043 30.572C46.7393 30.6965 46.8713 30.8247 47.0003 30.9567C47.127 30.8239 47.2591 30.6963 47.3963 30.5742C54.6638 23.8827 68.8208 30.932 64.0328 43.7502H61.6073C63.2453 39.977 62.9348 36.989 61.8503 34.8695C59.3438 29.9757 52.4003 28.6302 48.6135 32.5227L47.0003 34.1832ZM33.9773 50.5002H36.936C39.3345 53.162 42.6128 56.0307 47.0003 59.039C51.3855 56.0307 54.666 53.162 57.0645 50.5002H60.0233C57.177 54.0237 52.9583 57.8127 47.0003 61.7502C41.0423 57.8127 36.8235 54.0237 33.9773 50.5002Z"/>
</mask>
<path d="M47.0003 34.1832L44.85 36.2752L47.0017 38.4869L49.152 36.2737L47.0003 34.1832ZM45.387 32.525L43.2367 34.6169L43.2367 34.6169L45.387 32.525ZM32.1503 34.8695L29.4801 33.5019L29.4796 33.5029L32.1503 34.8695ZM32.3933 43.7502V46.7502H36.9661L35.1452 42.5556L32.3933 43.7502ZM29.9678 43.7502L27.1574 44.8L27.8859 46.7502H29.9678V43.7502ZM46.6043 30.572L48.6381 28.3666L48.6363 28.365L46.6043 30.572ZM47.0003 30.9567L44.8547 33.0535L47.0261 35.2754L49.1708 33.0277L47.0003 30.9567ZM47.3963 30.5742L49.3908 32.8152L49.4097 32.7984L49.4283 32.7812L47.3963 30.5742ZM64.0328 43.7502V46.7502H66.1146L66.8431 44.8L64.0328 43.7502ZM61.6073 43.7502L58.8554 42.5556L57.0345 46.7502H61.6073V43.7502ZM61.8503 34.8695L64.521 33.5029L64.5204 33.5019L61.8503 34.8695ZM48.6135 32.5227L46.4632 30.4308L46.4618 30.4322L48.6135 32.5227ZM33.9773 50.5002V47.5002H27.6974L31.6436 52.3854L33.9773 50.5002ZM36.936 50.5002L39.1647 48.492L38.271 47.5002H36.936V50.5002ZM47.0003 59.039L45.3038 61.5132L47.0007 62.6767L48.6973 61.5128L47.0003 59.039ZM57.0645 50.5002V47.5002H55.7295L54.8359 48.492L57.0645 50.5002ZM60.0233 50.5002L62.357 52.3854L66.3032 47.5002H60.0233V50.5002ZM47.0003 61.7502L45.3462 64.253L47.0003 65.3462L48.6543 64.253L47.0003 61.7502ZM49.1506 32.0913L47.5373 30.433L43.2367 34.6169L44.85 36.2752L49.1506 32.0913ZM47.5374 30.4331C42.1697 24.9155 32.8225 26.9762 29.4801 33.5019L34.8204 36.2371C36.4911 32.9753 41.0308 32.3494 43.2367 34.6169L47.5374 30.4331ZM29.4796 33.5029C27.9355 36.5207 27.6932 40.4571 29.6414 44.9448L35.1452 42.5556C33.8173 39.4968 34.1961 37.4573 34.821 36.236L29.4796 33.5029ZM32.3933 40.7502H29.9678V46.7502H32.3933V40.7502ZM32.7781 42.7005C30.8715 37.5962 32.7404 34.1087 35.413 32.3533C38.3156 30.4468 42.1204 30.5215 44.5722 32.779L48.6363 28.365C43.8229 23.9332 36.9155 24.1879 32.1191 27.3383C27.0928 30.6397 24.276 37.0859 27.1574 44.8L32.7781 42.7005ZM44.5705 32.7773C44.6671 32.8664 44.7618 32.9585 44.8547 33.0535L49.1458 28.8599C48.9807 28.691 48.8115 28.5265 48.6381 28.3666L44.5705 32.7773ZM49.1708 33.0277C49.2412 32.9539 49.3146 32.883 49.3908 32.8152L45.4018 28.3332C45.2037 28.5096 45.0129 28.6939 44.8298 28.8857L49.1708 33.0277ZM49.4283 32.7812C51.8818 30.5222 55.6867 30.4477 58.5884 32.3536C61.2604 34.1086 63.1291 37.5959 61.2224 42.7005L66.8431 44.8C69.7244 37.0863 66.9086 30.6399 61.8823 27.3386C57.0856 24.1881 50.1783 23.9347 45.3642 28.3672L49.4283 32.7812ZM64.0328 40.7502H61.6073V46.7502H64.0328V40.7502ZM64.3592 44.9448C66.3073 40.4571 66.0651 36.5207 64.521 33.5029L59.1796 36.236C59.8045 37.4573 60.1832 39.4968 58.8554 42.5556L64.3592 44.9448ZM64.5204 33.5019C61.1787 26.9775 51.8318 24.9122 46.4632 30.4308L50.7639 34.6146C52.9687 32.3482 57.5088 32.9739 59.1801 36.2371L64.5204 33.5019ZM46.4618 30.4322L44.8486 32.0927L49.152 36.2737L50.7652 34.6132L46.4618 30.4322ZM33.9773 53.5002H36.936V47.5002H33.9773V53.5002ZM34.7074 52.5085C37.2946 55.3796 40.7624 58.3995 45.3038 61.5132L48.6967 56.5647C44.4632 53.662 41.3745 50.9443 39.1647 48.492L34.7074 52.5085ZM48.6973 61.5128C53.2355 58.3997 56.7057 55.38 59.2932 52.5085L54.8359 48.492C52.6264 50.944 49.5355 53.6618 45.3032 56.5651L48.6973 61.5128ZM57.0645 53.5002H60.0233V47.5002H57.0645V53.5002ZM57.6896 48.6151C55.0853 51.8391 51.1207 55.4312 45.3462 59.2474L48.6543 64.253C54.7959 60.1942 59.2688 56.2084 62.357 52.3854L57.6896 48.6151ZM48.6543 59.2474C42.8799 55.4312 38.9153 51.8391 36.311 48.6151L31.6436 52.3854C34.7318 56.2084 39.2047 60.1942 45.3462 64.253L48.6543 59.2474Z" fill="#0C615A" mask="url(#path-2-inside-1_791_13014)"/>
<path d="M52.544 35.4566C52.4567 35.2387 52.3035 35.0536 52.1058 34.9272C51.9081 34.8008 51.6758 34.7394 51.4415 34.7515C51.2071 34.7637 50.9824 34.8488 50.7989 34.995C50.6153 35.1412 50.482 35.3411 50.4177 35.5668L46.8223 48.1511L43.544 39.9566C43.4677 39.7665 43.3408 39.6008 43.1773 39.4775C43.0137 39.3542 42.8195 39.2779 42.6158 39.2568C42.412 39.2357 42.2064 39.2707 42.021 39.3579C41.8356 39.4452 41.6776 39.5814 41.564 39.7518L37.397 46.0001H30.125C29.8266 46.0001 29.5405 46.1186 29.3295 46.3296C29.1185 46.5405 29 46.8267 29 47.1251C29 47.4234 29.1185 47.7096 29.3295 47.9206C29.5405 48.1315 29.8266 48.2501 30.125 48.2501H38C38.1853 48.25 38.3676 48.2041 38.5309 48.1166C38.6942 48.0291 38.8334 47.9026 38.936 47.7483L42.2502 42.7781L45.956 52.0436C46.0433 52.2614 46.1965 52.4465 46.3942 52.5729C46.5919 52.6993 46.8242 52.7608 47.0585 52.7486C47.2929 52.7365 47.5176 52.6513 47.7011 52.5051C47.8847 52.3589 48.018 52.159 48.0823 51.9333L51.6778 39.3491L54.956 47.5436C55.0396 47.7521 55.1837 47.9309 55.3698 48.0568C55.5558 48.1827 55.7753 48.25 56 48.2501H63.875C64.1734 48.2501 64.4595 48.1315 64.6705 47.9206C64.8815 47.7096 65 47.4234 65 47.1251C65 46.8267 64.8815 46.5405 64.6705 46.3296C64.4595 46.1186 64.1734 46.0001 63.875 46.0001H56.7605L52.544 35.4566Z" fill="#0C615A"/>
</g>
<defs>
<filter id="filter0_d_791_13014" x="0" y="0" width="94" height="94" filterUnits="userSpaceOnUse" color-interpolation-filters="sRGB">
<feFlood flood-opacity="0" result="BackgroundImageFix"/>
<feColorMatrix in="SourceAlpha" type="matrix" values="0 0 0 0 0 0 0 0 0 0 0 0 0 0 0 0 0 0 127 0" result="hardAlpha"/>
<feOffset dy="4"/>
<feGaussianBlur stdDeviation="7.5"/>
<feComposite in2="hardAlpha" operator="out"/>
<feColorMatrix type="matrix" values="0 0 0 0 0 0 0 0 0 0 0 0 0 0 0 0 0 0 0.2 0"/>
<feBlend mode="normal" in2="BackgroundImageFix" result="effect1_dropShadow_791_13014"/>
<feBlend mode="normal" in="SourceGraphic" in2="effect1_dropShadow_791_13014" result="shape"/>
</filter>
<clipPath id="clip0_791_13014">
<rect width="36" height="36" fill="white" transform="translate(29 28)"/>
</clipPath>
</defs>
</svg>
