<svg width="25" height="25" viewBox="0 0 25 25" fill="none" xmlns="http://www.w3.org/2000/svg">
<g clip-path="url(#clip0_993_9182)">
<path d="M12.5 7.15784C11.8606 7.15784 11.2274 7.28378 10.6367 7.52847C10.046 7.77316 9.50923 8.13181 9.0571 8.58393C8.60497 9.03606 8.24632 9.57282 8.00163 10.1636C7.75694 10.7543 7.631 11.3874 7.631 12.0268C7.631 12.6662 7.75694 13.2994 8.00163 13.8901C8.24632 14.4809 8.60497 15.0176 9.0571 15.4697C9.50923 15.9219 10.046 16.2805 10.6367 16.5252C11.2274 16.7699 11.8606 16.8958 12.5 16.8958C13.7913 16.8958 15.0298 16.3829 15.9429 15.4697C16.856 14.5566 17.369 13.3182 17.369 12.0268C17.369 10.7355 16.856 9.49705 15.9429 8.58393C15.0298 7.67082 13.7913 7.15784 12.5 7.15784ZM9.131 12.0268C9.131 11.1333 9.48595 10.2764 10.1178 9.64459C10.7496 9.01278 11.6065 8.65784 12.5 8.65784C13.3935 8.65784 14.2504 9.01278 14.8822 9.64459C15.5141 10.2764 15.869 11.1333 15.869 12.0268C15.869 12.9204 15.5141 13.7773 14.8822 14.4091C14.2504 15.0409 13.3935 15.3958 12.5 15.3958C11.6065 15.3958 10.7496 15.0409 10.1178 14.4091C9.48595 13.7773 9.131 12.9204 9.131 12.0268Z" fill="white"/>
<path d="M15.194 2.04134C14.4035 -0.643662 10.5965 -0.643662 9.806 2.04134L9.665 2.51984C9.60979 2.70727 9.51335 2.87997 9.38272 3.02528C9.2521 3.17059 9.09062 3.28482 8.91011 3.35962C8.7296 3.43441 8.53465 3.46786 8.33953 3.45751C8.14442 3.44717 7.95409 3.3933 7.7825 3.29984L7.3445 3.05984C4.8845 1.72184 2.195 4.41284 3.5345 6.87134L3.773 7.30934C3.86646 7.48093 3.92033 7.67125 3.93068 7.86637C3.94102 8.06149 3.90757 8.25644 3.83278 8.43695C3.75799 8.61746 3.64375 8.77894 3.49844 8.90956C3.35313 9.04018 3.18043 9.13663 2.993 9.19184L2.5145 9.33284C-0.1705 10.1233 -0.1705 13.9303 2.5145 14.7208L2.993 14.8618C3.18043 14.917 3.35313 15.0135 3.49844 15.1441C3.64375 15.2747 3.75799 15.4362 3.83278 15.6167C3.90757 15.7972 3.94102 15.9922 3.93068 16.1873C3.92033 16.3824 3.86646 16.5728 3.773 16.7443L3.533 17.1823C2.195 19.6423 4.8845 22.3333 7.3445 20.9923L7.7825 20.7538C7.95409 20.6604 8.14442 20.6065 8.33953 20.5962C8.53465 20.5858 8.7296 20.6193 8.91011 20.6941C9.09062 20.7689 9.2521 20.8831 9.38272 21.0284C9.51335 21.1737 9.60979 21.3464 9.665 21.5338L9.806 22.0123C10.5965 24.6973 14.4035 24.6973 15.194 22.0123L15.335 21.5338C15.3902 21.3464 15.4867 21.1737 15.6173 21.0284C15.7479 20.8831 15.9094 20.7689 16.0899 20.6941C16.2704 20.6193 16.4654 20.5858 16.6605 20.5962C16.8556 20.6065 17.0459 20.6604 17.2175 20.7538L17.6555 20.9938C20.1155 22.3333 22.8065 19.6408 21.4655 17.1823L21.227 16.7443C21.1335 16.5728 21.0797 16.3824 21.0693 16.1873C21.059 15.9922 21.0924 15.7972 21.1672 15.6167C21.242 15.4362 21.3563 15.2747 21.5016 15.1441C21.6469 15.0135 21.8196 14.917 22.007 14.8618L22.4855 14.7208C25.1705 13.9303 25.1705 10.1233 22.4855 9.33284L22.007 9.19184C21.8196 9.13663 21.6469 9.04018 21.5016 8.90956C21.3563 8.77894 21.242 8.61746 21.1672 8.43695C21.0924 8.25644 21.059 8.06149 21.0693 7.86637C21.0797 7.67125 21.1335 7.48093 21.227 7.30934L21.467 6.87134C22.8065 4.41134 20.114 1.72184 17.6555 3.06134L17.2175 3.29984C17.0459 3.3933 16.8556 3.44717 16.6605 3.45751C16.4654 3.46786 16.2704 3.43441 16.0899 3.35962C15.9094 3.28482 15.7479 3.17059 15.6173 3.02528C15.4867 2.87997 15.3902 2.70727 15.335 2.51984L15.194 2.04134ZM11.2445 2.46584C11.6135 1.21334 13.3865 1.21334 13.7555 2.46584L13.8965 2.94434C14.015 3.34647 14.2221 3.71697 14.5024 4.02869C14.7827 4.3404 15.1293 4.58543 15.5166 4.74581C15.904 4.90618 16.3223 4.97784 16.7409 4.95552C17.1596 4.93321 17.5679 4.81748 17.936 4.61684L18.3725 4.37684C19.5185 3.75434 20.7725 5.00684 20.1485 6.15434L19.91 6.59234C19.7097 6.96048 19.5942 7.36878 19.5721 7.78732C19.5501 8.20586 19.6219 8.62404 19.7824 9.01121C19.9429 9.39839 20.188 9.74474 20.4998 10.0249C20.8115 10.3051 21.1819 10.5119 21.584 10.6303L22.061 10.7713C23.3135 11.1403 23.3135 12.9133 22.061 13.2823L21.5825 13.4233C21.1804 13.5419 20.8099 13.7489 20.4981 14.0292C20.1864 14.3096 19.9414 14.6561 19.781 15.0435C19.6207 15.4308 19.549 15.8491 19.5713 16.2678C19.5936 16.6864 19.7094 17.0947 19.91 17.4628L20.15 17.8993C20.7725 19.0453 19.52 20.2993 18.3725 19.6753L17.936 19.4368C17.5678 19.2362 17.1594 19.1205 16.7406 19.0983C16.3219 19.0761 15.9035 19.1479 15.5162 19.3084C15.1288 19.4689 14.7823 19.7141 14.502 20.026C14.2218 20.3379 14.0149 20.7086 13.8965 21.1108L13.7555 21.5878C13.3865 22.8403 11.6135 22.8403 11.2445 21.5878L11.1035 21.1093C10.9849 20.7074 10.7779 20.3371 10.4977 20.0256C10.2175 19.714 9.87109 19.4691 9.48393 19.3087C9.09678 19.1484 8.67866 19.0766 8.2602 19.0988C7.84174 19.121 7.43354 19.2365 7.0655 19.4368L6.6275 19.6768C5.4815 20.2993 4.2275 19.0468 4.8515 17.8993L5.09 17.4628C5.29093 17.0947 5.40688 16.6862 5.42934 16.2674C5.4518 15.8486 5.38021 15.43 5.21982 15.0425C5.05942 14.655 4.81429 14.3083 4.50242 14.0278C4.19054 13.7474 3.81984 13.5403 3.4175 13.4218L2.939 13.2808C1.6865 12.9118 1.6865 11.1388 2.939 10.7698L3.4175 10.6288C3.81921 10.5102 4.18931 10.3032 4.50071 10.0231C4.81212 9.74299 5.05695 9.39678 5.21728 9.00982C5.37761 8.62286 5.4494 8.20495 5.42737 7.78667C5.40535 7.36839 5.29008 6.96032 5.09 6.59234L4.85 6.15434C4.2275 5.00834 5.48 3.75434 6.6275 4.37834L7.0655 4.61684C7.43354 4.8172 7.84174 4.9327 8.2602 4.95487C8.67866 4.97704 9.09678 4.90532 9.48393 4.74496C9.87109 4.58461 10.2175 4.33968 10.4977 4.02812C10.7779 3.71656 10.9849 3.34626 11.1035 2.94434L11.2445 2.46584Z" fill="white"/>
</g>
<defs>
<clipPath id="clip0_993_9182">
<rect width="24" height="24" fill="white" transform="translate(0.5 0.0268555)"/>
</clipPath>
</defs>
</svg>
