<svg width="24" height="25" viewBox="0 0 24 25" fill="none" xmlns="http://www.w3.org/2000/svg">
<path fill-rule="evenodd" clip-rule="evenodd" d="M3.75 7.63636C3.50688 7.63636 3.27373 7.72256 3.10182 7.876C2.92991 8.02944 2.83333 8.23755 2.83333 8.45455V21.5455C2.83333 21.7625 2.92991 21.9706 3.10182 22.124C3.27373 22.2774 3.50688 22.3636 3.75 22.3636H20.25C20.4931 22.3636 20.7263 22.2774 20.8982 22.124C21.0701 21.9706 21.1667 21.7625 21.1667 21.5455V8.45455C21.1667 8.23755 21.0701 8.02944 20.8982 7.876C20.7263 7.72256 20.4931 7.63636 20.25 7.63636H16.5833C16.3402 7.63636 16.1071 7.55016 15.9352 7.39672C15.7632 7.24328 15.6667 7.03518 15.6667 6.81818C15.6667 6.60119 15.7632 6.39308 15.9352 6.23964C16.1071 6.0862 16.3402 6 16.5833 6H20.25C20.9793 6 21.6788 6.2586 22.1945 6.71892C22.7103 7.17924 23 7.80356 23 8.45455V21.5455C23 22.1964 22.7103 22.8208 22.1945 23.2811C21.6788 23.7414 20.9793 24 20.25 24H3.75C3.02065 24 2.32118 23.7414 1.80546 23.2811C1.28973 22.8208 1 22.1964 1 21.5455V8.45455C1 7.80356 1.28973 7.17924 1.80546 6.71892C2.32118 6.2586 3.02065 6 3.75 6H7.41667C7.65978 6 7.89294 6.0862 8.06485 6.23964C8.23676 6.39308 8.33333 6.60119 8.33333 6.81818C8.33333 7.03518 8.23676 7.24328 8.06485 7.39672C7.89294 7.55016 7.65978 7.63636 7.41667 7.63636H3.75Z" fill="#1D2132"/>
<path fill-rule="evenodd" clip-rule="evenodd" d="M11.4699 17.281C11.5396 17.3508 11.6224 17.4063 11.7135 17.4441C11.8046 17.4819 11.9023 17.5013 12.0009 17.5013C12.0996 17.5013 12.1973 17.4819 12.2884 17.4441C12.3795 17.4063 12.4623 17.3508 12.5319 17.281L17.0319 12.781C17.1728 12.6402 17.2519 12.4492 17.2519 12.25C17.2519 12.0508 17.1728 11.8598 17.0319 11.719C16.8911 11.5782 16.7001 11.4991 16.5009 11.4991C16.3018 11.4991 16.1108 11.5782 15.9699 11.719L12.7509 14.9395V1.75C12.7509 1.55109 12.6719 1.36032 12.5313 1.21967C12.3906 1.07902 12.1999 1 12.0009 1C11.802 1 11.6113 1.07902 11.4706 1.21967C11.33 1.36032 11.2509 1.55109 11.2509 1.75V14.9395L8.03195 11.719C7.89112 11.5782 7.70011 11.4991 7.50095 11.4991C7.30178 11.4991 7.11078 11.5782 6.96995 11.719C6.82912 11.8598 6.75 12.0508 6.75 12.25C6.75 12.4492 6.82912 12.6402 6.96995 12.781L11.4699 17.281Z" fill="#1D2132"/>
</svg>
