<svg width="71" height="70" viewBox="0 0 71 70" fill="none" xmlns="http://www.w3.org/2000/svg">
<g id="Group 1000006166">
<path id="Vector" d="M6.1 0H64.9C68.002 0 70.5 2.49804 70.5 5.6V64.4C70.5 67.502 68.002 70 64.9 70H6.1C2.99804 70 0.5 67.502 0.5 64.4V5.6C0.5 2.49804 2.99804 0 6.1 0Z" fill="#0C615A"/>
<path id="Vector_2" d="M54.1305 27.1546L45.6681 31.0937L40.188 25.6311V22.3609L45.6681 16.8983L54.1305 20.8373C55.0252 21.2461 56.069 20.8745 56.4791 19.9826C56.8891 19.0908 56.5163 18.0503 55.6216 17.6415L46.4137 13.3681C45.519 12.9593 44.4751 13.1451 43.7668 13.8512L39.6661 17.9388C39.256 17.3814 38.585 17.0098 37.8394 17.0098C36.5347 17.0098 35.4909 18.0503 35.4909 19.3509V21.692H28.035C27.0657 18.9793 24.4562 17.0098 21.3993 17.0098C17.485 17.0098 14.3535 20.1313 14.3535 24.0331C14.3535 26.5972 15.7701 28.8269 17.8205 30.0903L23.9343 49.8226H21.3993C18.827 49.8226 16.7021 51.9407 16.7021 54.5048V56.8459H47.2338V54.5048C47.2338 51.9407 45.1089 49.8226 42.5366 49.8226H38.7341L27.0657 28.1208C27.4758 27.5634 27.8113 26.9688 28.035 26.2999H35.4909V28.6411C35.4909 29.9417 36.5347 30.9822 37.8394 30.9822C38.585 30.9822 39.256 30.6106 39.6661 30.0532L43.7668 34.1408C44.4751 34.8469 45.519 35.0327 46.4137 34.6239L55.6216 30.3504C56.5163 29.9417 56.8891 28.9012 56.4791 28.0093C56.069 27.1175 55.0252 26.7087 54.1305 27.1546ZM21.4366 26.3371C20.1318 26.3371 19.088 25.2966 19.088 23.996C19.088 22.6954 20.1318 21.6549 21.4366 21.6549C22.7413 21.6549 23.7852 22.6954 23.7852 23.996C23.7852 25.2594 22.7041 26.3371 21.4366 26.3371ZM33.4405 49.7483H28.8924L23.1141 31.0193H23.3378L33.4405 49.7483Z" fill="#EEEEEE"/>
</g>
</svg>
