<svg width="94" height="94" viewBox="0 0 94 94" fill="none" xmlns="http://www.w3.org/2000/svg">
<g clip-path="url(#clip0_791_13030)">
<mask id="path-1-inside-1_791_13030" fill="white">
<path d="M35.9173 33.7793L34.192 32.0059C30.1423 27.8431 22.7166 29.2796 20.036 34.5132C18.8762 36.7799 18.5442 39.9754 20.2959 44.0107H17.702C12.5815 30.3023 27.724 22.7635 35.4938 29.9173C35.6382 30.0504 35.7793 30.1876 35.9173 30.3287C36.0528 30.1867 36.1941 30.0502 36.3408 29.9197C44.113 22.7635 59.2531 30.3023 54.1326 44.0107H51.5387C53.2904 39.9754 52.9584 36.7799 51.7985 34.5132C49.118 29.2796 41.6923 27.8407 37.6426 32.0035L35.9173 33.7793ZM21.9899 51.2294H25.1541C27.7192 54.076 31.2251 57.144 35.9173 60.3611C40.6071 57.144 44.1154 54.076 46.6804 51.2294H49.8447C46.8008 54.9976 42.289 59.0497 35.9173 63.2607C29.5455 59.0497 25.0338 54.9976 21.9899 51.2294Z"/>
</mask>
<path d="M35.9173 33.7793L33.767 35.8712L35.9187 38.083L38.069 35.8698L35.9173 33.7793ZM34.192 32.0059L32.0417 34.0978L32.0417 34.0978L34.192 32.0059ZM20.036 34.5132L17.3659 33.1456L17.3653 33.1467L20.036 34.5132ZM20.2959 44.0107V47.0107H24.8687L23.0478 42.8161L20.2959 44.0107ZM17.702 44.0107L14.8916 45.0604L15.6201 47.0107H17.702V44.0107ZM35.4938 29.9173L37.5276 27.7119L37.5258 27.7103L35.4938 29.9173ZM35.9173 30.3287L33.7717 32.4255L35.9431 34.6474L38.0878 32.3997L35.9173 30.3287ZM36.3408 29.9197L38.3353 32.1607L38.3542 32.1438L38.3728 32.1267L36.3408 29.9197ZM54.1326 44.0107V47.0107H56.2145L56.9429 45.0604L54.1326 44.0107ZM51.5387 44.0107L48.7868 42.8161L46.9659 47.0107H51.5387V44.0107ZM51.7985 34.5132L54.4692 33.1467L54.4687 33.1456L51.7985 34.5132ZM37.6426 32.0035L35.4922 29.9116L35.4909 29.913L37.6426 32.0035ZM21.9899 51.2294V48.2294H15.71L19.6562 53.1146L21.9899 51.2294ZM25.1541 51.2294L27.3828 49.2212L26.4891 48.2294H25.1541V51.2294ZM35.9173 60.3611L34.2208 62.8354L35.9177 63.9989L37.6143 62.835L35.9173 60.3611ZM46.6804 51.2294V48.2294H45.3454L44.4518 49.2212L46.6804 51.2294ZM49.8447 51.2294L52.1784 53.1146L56.1246 48.2294H49.8447V51.2294ZM35.9173 63.2607L34.2632 65.7635L35.9173 66.8566L37.5713 65.7635L35.9173 63.2607ZM38.0676 31.6874L36.3423 29.9139L32.0417 34.0978L33.767 35.8712L38.0676 31.6874ZM36.3423 29.914C30.7117 24.1261 20.8823 26.2801 17.3659 33.1456L22.7062 35.8808C24.5509 32.2792 29.5728 31.56 32.0417 34.0978L36.3423 29.914ZM17.3653 33.1467C15.7459 36.3116 15.4821 40.4555 17.544 45.2053L23.0478 42.8161C21.6062 39.4953 22.0065 37.2482 22.7067 35.8797L17.3653 33.1467ZM20.2959 41.0107H17.702V47.0107H20.2959V41.0107ZM20.5123 42.9609C18.4395 37.4116 20.471 33.5792 23.411 31.6481C26.5809 29.5661 30.7576 29.6345 33.4618 32.1243L37.5258 27.7103C32.4601 23.0462 25.1808 23.3072 20.117 26.6332C14.8234 30.1102 11.844 36.9013 14.8916 45.0604L20.5123 42.9609ZM33.46 32.1226C33.566 32.2204 33.6699 32.3213 33.7717 32.4255L38.0629 28.2319C37.8888 28.0538 37.7104 27.8804 37.5276 27.7119L33.46 32.1226ZM38.0878 32.3997C38.167 32.3167 38.2496 32.2369 38.3353 32.1607L34.3463 27.6787C34.1387 27.8635 33.9387 28.0567 33.7468 28.2578L38.0878 32.3997ZM38.3728 32.1267C41.0786 29.6353 45.2555 29.5671 48.4245 31.6485C51.3639 33.579 53.3952 37.4113 51.3223 42.9609L56.9429 45.0604C59.9905 36.9016 57.012 30.1103 51.7184 26.6334C46.6544 23.3074 39.3752 23.0478 34.3087 27.7127L38.3728 32.1267ZM54.1326 41.0107H51.5387V47.0107H54.1326V41.0107ZM54.2906 45.2053C56.3525 40.4555 56.0886 36.3116 54.4692 33.1467L49.1279 35.8797C49.8281 37.2482 50.2284 39.4953 48.7868 42.8161L54.2906 45.2053ZM54.4687 33.1456C50.9529 26.2814 41.1239 24.1227 35.4922 29.9116L39.7929 34.0954C42.2607 31.5587 47.283 32.2778 49.1284 35.8808L54.4687 33.1456ZM35.4909 29.913L33.7656 31.6888L38.069 35.8698L39.7943 34.094L35.4909 29.913ZM21.9899 54.2294H25.1541V48.2294H21.9899V54.2294ZM22.9255 53.2377C25.6792 56.2937 29.3747 59.5127 34.2208 62.8354L37.6138 57.8869C33.0755 54.7752 29.7592 51.8584 27.3828 49.2212L22.9255 53.2377ZM37.6143 62.835C42.4571 59.5129 46.155 56.294 48.9091 53.2377L44.4518 49.2212C42.0757 51.858 38.7571 54.775 34.2202 57.8873L37.6143 62.835ZM46.6804 54.2294H49.8447V48.2294H46.6804V54.2294ZM47.511 49.3443C44.709 52.8129 40.4514 56.6682 34.2632 60.7579L37.5713 65.7635C44.1266 61.4313 48.8925 57.1823 52.1784 53.1146L47.511 49.3443ZM37.5713 60.7579C31.3831 56.6682 27.1256 52.8129 24.3236 49.3443L19.6562 53.1146C22.9421 57.1823 27.7079 61.4313 34.2632 65.7635L37.5713 60.7579Z" fill="#404040" mask="url(#path-1-inside-1_791_13030)"/>
<path d="M41.846 35.1411C41.7526 34.9081 41.5888 34.7102 41.3774 34.575C41.1659 34.4398 40.9175 34.3741 40.6669 34.3871C40.4163 34.4 40.176 34.4911 39.9797 34.6474C39.7833 34.8038 39.6408 35.0176 39.5721 35.259L35.7269 48.7171L32.221 39.9536C32.1393 39.7503 32.0037 39.5731 31.8288 39.4413C31.6539 39.3094 31.4462 39.2278 31.2283 39.2052C31.0104 39.1827 30.7905 39.2201 30.5922 39.3134C30.394 39.4067 30.225 39.5523 30.1035 39.7346L25.6471 46.4168H17.8701C17.551 46.4168 17.245 46.5435 17.0194 46.7691C16.7937 46.9948 16.667 47.3008 16.667 47.6199C16.667 47.939 16.7937 48.245 17.0194 48.4706C17.245 48.6962 17.551 48.823 17.8701 48.823H26.292C26.4901 48.8229 26.6852 48.7739 26.8598 48.6803C27.0344 48.5866 27.1832 48.4514 27.293 48.2864L30.8374 42.971L34.8005 52.8799C34.8938 53.1129 35.0577 53.3108 35.2691 53.446C35.4806 53.5812 35.729 53.6469 35.9796 53.634C36.2302 53.621 36.4705 53.5299 36.6668 53.3736C36.8631 53.2172 37.0056 53.0034 37.0744 52.762L40.9196 39.3039L44.4255 48.0674C44.5149 48.2905 44.669 48.4816 44.868 48.6163C45.067 48.751 45.3017 48.8229 45.542 48.823H53.9639C54.283 48.823 54.589 48.6962 54.8146 48.4706C55.0402 48.245 55.167 47.939 55.167 47.6199C55.167 47.3008 55.0402 46.9948 54.8146 46.7691C54.589 46.5435 54.283 46.4168 53.9639 46.4168H46.3553L41.846 35.1411Z" fill="#404040"/>
</g>
<g filter="url(#filter0_d_791_13030)">
<circle cx="47" cy="43" r="32" fill="#EEEEEE"/>
</g>
<path d="M31.25 31.3629C33.2413 30.5304 36.0965 29.6327 38.873 29.3537C41.8655 29.0522 44.4035 29.4954 45.875 31.0457V52.9742C43.7712 51.7817 41.105 51.6174 38.6458 51.8649C35.9908 52.1349 33.3133 52.9022 31.25 53.6897V31.3629ZM48.125 31.0457C49.5965 29.4954 52.1345 29.0522 55.127 29.3537C57.9035 29.6327 60.7588 30.5304 62.75 31.3629V53.6897C60.6845 52.9022 58.0093 52.1327 55.3542 51.8672C52.8927 51.6174 50.2288 51.7794 48.125 52.9742V31.0457ZM47 29.0117C44.7837 27.1059 41.5708 26.8224 38.6458 27.1149C35.2393 27.4592 31.8012 28.6269 29.6593 29.6012C29.4627 29.6906 29.296 29.8346 29.1791 30.0161C29.0623 30.1977 29.0001 30.409 29 30.6249V55.3749C29.0001 55.5631 29.0473 55.7484 29.1375 55.9136C29.2277 56.0788 29.3579 56.2188 29.5162 56.3206C29.6745 56.4225 29.8558 56.483 30.0435 56.4966C30.2312 56.5103 30.4194 56.4766 30.5907 56.3987C32.5753 55.4987 35.7725 54.4164 38.8708 54.1037C42.041 53.7842 44.6982 54.2994 46.1225 56.0769C46.2279 56.2083 46.3615 56.3144 46.5134 56.3872C46.6652 56.4601 46.8315 56.4979 47 56.4979C47.1685 56.4979 47.3348 56.4601 47.4866 56.3872C47.6385 56.3144 47.7721 56.2083 47.8775 56.0769C49.3018 54.2994 51.959 53.7842 55.127 54.1037C58.2275 54.4164 61.427 55.4987 63.4093 56.3987C63.5806 56.4766 63.7687 56.5103 63.9565 56.4966C64.1442 56.483 64.3255 56.4225 64.4838 56.3206C64.6421 56.2188 64.7723 56.0788 64.8625 55.9136C64.9527 55.7484 64.9999 55.5631 65 55.3749V30.6249C64.9999 30.409 64.9377 30.1977 64.8209 30.0161C64.704 29.8346 64.5373 29.6906 64.3407 29.6012C62.1987 28.6269 58.7608 27.4592 55.3542 27.1149C52.4293 26.8202 49.2162 27.1059 47 29.0117Z" fill="#0C615A"/>
<defs>
<filter id="filter0_d_791_13030" x="0" y="0" width="94" height="94" filterUnits="userSpaceOnUse" color-interpolation-filters="sRGB">
<feFlood flood-opacity="0" result="BackgroundImageFix"/>
<feColorMatrix in="SourceAlpha" type="matrix" values="0 0 0 0 0 0 0 0 0 0 0 0 0 0 0 0 0 0 127 0" result="hardAlpha"/>
<feOffset dy="4"/>
<feGaussianBlur stdDeviation="7.5"/>
<feComposite in2="hardAlpha" operator="out"/>
<feColorMatrix type="matrix" values="0 0 0 0 0 0 0 0 0 0 0 0 0 0 0 0 0 0 0.2 0"/>
<feBlend mode="normal" in2="BackgroundImageFix" result="effect1_dropShadow_791_13030"/>
<feBlend mode="normal" in="SourceGraphic" in2="effect1_dropShadow_791_13030" result="shape"/>
</filter>
<clipPath id="clip0_791_13030">
<rect width="38.5" height="38.5" fill="white" transform="translate(16.667 27.1667)"/>
</clipPath>
</defs>
</svg>
