<svg width="50" height="50" viewBox="0 0 50 50" fill="none" xmlns="http://www.w3.org/2000/svg">
<path d="M3.125 8.8374C5.89062 7.68115 9.85625 6.43428 13.7125 6.04678C17.8687 5.62803 21.3937 6.24365 23.4375 8.39678V38.853C20.5156 37.1968 16.8125 36.9687 13.3969 37.3124C9.70938 37.6874 5.99062 38.753 3.125 39.8468V8.8374ZM26.5625 8.39678C28.6063 6.24365 32.1313 5.62803 36.2875 6.04678C40.1438 6.43428 44.1094 7.68115 46.875 8.8374V39.8468C44.0062 38.753 40.2906 37.6843 36.6031 37.3155C33.1844 36.9687 29.4844 37.1937 26.5625 38.853V8.39678ZM25 5.57178C21.9219 2.9249 17.4594 2.53115 13.3969 2.9374C8.66563 3.41553 3.89062 5.0374 0.915625 6.39053C0.642653 6.51468 0.411173 6.71476 0.248816 6.96688C0.0864584 7.219 8.30357e-05 7.51252 0 7.8124L0 42.1874C7.23812e-05 42.4488 0.0657411 42.7061 0.190991 42.9356C0.316241 43.165 0.497068 43.3594 0.716909 43.5009C0.93675 43.6424 1.18858 43.7264 1.44932 43.7454C1.71007 43.7643 1.9714 43.7175 2.20938 43.6093C4.96563 42.3593 9.40625 40.8562 13.7094 40.4218C18.1125 39.978 21.8031 40.6937 23.7812 43.1624C23.9277 43.3449 24.1132 43.4922 24.3241 43.5934C24.5351 43.6946 24.766 43.7471 25 43.7471C25.234 43.7471 25.4649 43.6946 25.6759 43.5934C25.8868 43.4922 26.0723 43.3449 26.2188 43.1624C28.1969 40.6937 31.8875 39.978 36.2875 40.4218C40.5938 40.8562 45.0375 42.3593 47.7906 43.6093C48.0286 43.7175 48.2899 43.7643 48.5507 43.7454C48.8114 43.7264 49.0632 43.6424 49.2831 43.5009C49.5029 43.3594 49.6838 43.165 49.809 42.9356C49.9343 42.7061 49.9999 42.4488 50 42.1874V7.8124C49.9999 7.51252 49.9135 7.219 49.7512 6.96688C49.5888 6.71476 49.3573 6.51468 49.0844 6.39053C46.1094 5.0374 41.3344 3.41553 36.6031 2.9374C32.5406 2.52803 28.0781 2.9249 25 5.57178Z" fill="#0C615A"/>
</svg>
