<svg width="94" height="94" viewBox="0 0 94 94" fill="none" xmlns="http://www.w3.org/2000/svg">
<g filter="url(#filter0_d_791_13085)">
<circle cx="47" cy="43" r="32" fill="#EEEEEE"/>
</g>
<path d="M40.9154 28.5775C38.7384 29.1677 36.5762 29.8099 34.4309 30.5035C34.2348 30.5657 34.0605 30.681 33.9279 30.8362C33.7954 30.9914 33.7098 31.1802 33.6812 31.381C32.4149 40.7343 35.3406 47.5585 38.8309 52.054C40.308 53.9769 42.0701 55.6706 44.0583 57.0783C44.8491 57.6273 45.5486 58.0233 46.0994 58.2775C46.3737 58.405 46.597 58.4935 46.7691 58.543C46.8451 58.5657 46.9221 58.5845 47 58.5993C47.0771 58.5844 47.1534 58.5656 47.2286 58.543C47.4023 58.492 47.6263 58.4035 47.9006 58.2775C48.4491 58.0233 49.1509 57.625 49.9417 57.0783C51.9299 55.6706 53.692 53.9769 55.1691 52.054C58.6594 47.5608 61.5851 40.7343 60.3188 31.381C60.2902 31.1802 60.2046 30.9914 60.0721 30.8362C59.9395 30.681 59.7652 30.5657 59.5691 30.5035C58.0811 30.0243 55.5691 29.2435 53.0846 28.5797C50.5474 27.9025 48.2137 27.4008 47 27.4008C45.7886 27.4008 43.4526 27.9002 40.9154 28.5775ZM40.3074 26.26C42.7874 25.5963 45.4229 25 47 25C48.5771 25 51.2126 25.5963 53.6926 26.26C56.2297 26.935 58.7874 27.7337 60.2914 28.2175C60.9202 28.4219 61.4777 28.7968 61.8998 29.2991C62.3219 29.8014 62.5916 30.4107 62.6777 31.057C64.04 41.1303 60.8788 48.5958 57.0434 53.5345C55.4164 55.6466 53.4771 57.507 51.2903 59.0537C50.5349 59.5902 49.7334 60.0608 48.8949 60.46C48.2549 60.757 47.5669 61 47 61C46.4331 61 45.7474 60.757 45.1051 60.46C44.2666 60.0608 43.4651 59.5902 42.7097 59.0537C40.5229 57.507 38.5836 55.6466 36.9566 53.5345C33.1212 48.5958 29.96 41.1303 31.3223 31.057C31.4084 30.4107 31.6781 29.8014 32.1002 29.2991C32.5223 28.7968 33.0798 28.4219 33.7086 28.2175C35.892 27.5133 38.0923 26.8606 40.3074 26.26Z" fill="#0C615A"/>
<path d="M44.7168 49.7498C44.7168 49.153 44.9576 48.5807 45.3863 48.1588C45.8149 47.7368 46.3963 47.4998 47.0025 47.4998C47.6087 47.4998 48.1901 47.7368 48.6188 48.1588C49.0474 48.5807 49.2882 49.153 49.2882 49.7498C49.2882 50.3465 49.0474 50.9188 48.6188 51.3408C48.1901 51.7627 47.6087 51.9998 47.0025 51.9998C46.3963 51.9998 45.8149 51.7627 45.3863 51.3408C44.9576 50.9188 44.7168 50.3465 44.7168 49.7498ZM44.9431 36.2385C44.9126 35.9547 44.9432 35.6677 45.0327 35.3962C45.1222 35.1247 45.2687 34.8748 45.4627 34.6626C45.6566 34.4504 45.8938 34.2808 46.1587 34.1647C46.4235 34.0485 46.7103 33.9885 47.0002 33.9885C47.2902 33.9885 47.5769 34.0485 47.8418 34.1647C48.1067 34.2808 48.3438 34.4504 48.5378 34.6626C48.7318 34.8748 48.8783 35.1247 48.9678 35.3962C49.0573 35.6677 49.0878 35.9547 49.0574 36.2385L48.2574 44.1293C48.2249 44.4352 48.0784 44.7184 47.8462 44.9243C47.6141 45.1302 47.3127 45.2441 47.0002 45.2441C46.6878 45.2441 46.3864 45.1302 46.1542 44.9243C45.922 44.7184 45.7756 44.4352 45.7431 44.1293L44.9431 36.2385Z" fill="#0C615A"/>
<defs>
<filter id="filter0_d_791_13085" x="0" y="0" width="94" height="94" filterUnits="userSpaceOnUse" color-interpolation-filters="sRGB">
<feFlood flood-opacity="0" result="BackgroundImageFix"/>
<feColorMatrix in="SourceAlpha" type="matrix" values="0 0 0 0 0 0 0 0 0 0 0 0 0 0 0 0 0 0 127 0" result="hardAlpha"/>
<feOffset dy="4"/>
<feGaussianBlur stdDeviation="7.5"/>
<feComposite in2="hardAlpha" operator="out"/>
<feColorMatrix type="matrix" values="0 0 0 0 0 0 0 0 0 0 0 0 0 0 0 0 0 0 0.25 0"/>
<feBlend mode="normal" in2="BackgroundImageFix" result="effect1_dropShadow_791_13085"/>
<feBlend mode="normal" in="SourceGraphic" in2="effect1_dropShadow_791_13085" result="shape"/>
</filter>
</defs>
</svg>
