<svg width="28" height="24" viewBox="0 0 28 24" fill="none" xmlns="http://www.w3.org/2000/svg">
<path d="M25.3125 23C25.3125 23 27 23 27 21.3333C27 19.6667 25.3125 14.6667 18.5625 14.6667C11.8125 14.6667 10.125 19.6667 10.125 21.3333C10.125 23 11.8125 23 11.8125 23H25.3125ZM11.8496 21.3333L11.8125 21.3267C11.8142 20.8867 12.0943 19.61 13.095 18.46C14.0265 17.3817 15.6634 16.3333 18.5625 16.3333C21.4599 16.3333 23.0968 17.3833 24.03 18.46C25.0307 19.61 25.3091 20.8883 25.3125 21.3267L25.299 21.33L25.2754 21.3333H11.8496ZM18.5625 11.3333C19.4576 11.3333 20.316 10.9821 20.949 10.357C21.5819 9.7319 21.9375 8.88405 21.9375 8C21.9375 7.11594 21.5819 6.2681 20.949 5.64298C20.316 5.01786 19.4576 4.66667 18.5625 4.66667C17.6674 4.66667 16.809 5.01786 16.176 5.64298C15.5431 6.2681 15.1875 7.11594 15.1875 8C15.1875 8.88405 15.5431 9.7319 16.176 10.357C16.809 10.9821 17.6674 11.3333 18.5625 11.3333ZM23.625 8C23.625 8.65661 23.4941 9.30679 23.2396 9.91342C22.9852 10.52 22.6123 11.0712 22.1422 11.5355C21.6721 11.9998 21.114 12.3681 20.4998 12.6194C19.8856 12.8707 19.2273 13 18.5625 13C17.8977 13 17.2394 12.8707 16.6252 12.6194C16.011 12.3681 15.4529 11.9998 14.9828 11.5355C14.5127 11.0712 14.1398 10.52 13.8854 9.91342C13.6309 9.30679 13.5 8.65661 13.5 8C13.5 6.67392 14.0334 5.40215 14.9828 4.46447C15.9322 3.52678 17.2198 3 18.5625 3C19.9052 3 21.1928 3.52678 22.1422 4.46447C23.0916 5.40215 23.625 6.67392 23.625 8ZM11.7045 15.1333C11.0291 14.9249 10.3334 14.7869 9.62887 14.7217C9.23294 14.6835 8.83531 14.6652 8.4375 14.6667C1.6875 14.6667 0 19.6667 0 21.3333C0 22.4444 0.5625 23 1.6875 23H8.802C8.55195 22.4797 8.4272 21.9092 8.4375 21.3333C8.4375 19.65 9.07369 17.93 10.2769 16.4933C10.6869 16.0033 11.1645 15.545 11.7045 15.1333ZM8.3025 16.3333C7.30438 17.8157 6.76493 19.5531 6.75 21.3333H1.6875C1.6875 20.9 1.96425 19.6167 2.97 18.46C3.88969 17.4 5.48775 16.3667 8.3025 16.335V16.3333ZM2.53125 8.83333C2.53125 7.50725 3.06462 6.23548 4.01402 5.2978C4.96343 4.36012 6.25109 3.83333 7.59375 3.83333C8.93641 3.83333 10.2241 4.36012 11.1735 5.2978C12.1229 6.23548 12.6562 7.50725 12.6562 8.83333C12.6562 10.1594 12.1229 11.4312 11.1735 12.3689C10.2241 13.3065 8.93641 13.8333 7.59375 13.8333C6.25109 13.8333 4.96343 13.3065 4.01402 12.3689C3.06462 11.4312 2.53125 10.1594 2.53125 8.83333ZM7.59375 5.5C6.69864 5.5 5.8402 5.85119 5.20726 6.47631C4.57433 7.10143 4.21875 7.94928 4.21875 8.83333C4.21875 9.71739 4.57433 10.5652 5.20726 11.1904C5.8402 11.8155 6.69864 12.1667 7.59375 12.1667C8.48886 12.1667 9.3473 11.8155 9.98024 11.1904C10.6132 10.5652 10.9688 9.71739 10.9688 8.83333C10.9688 7.94928 10.6132 7.10143 9.98024 6.47631C9.3473 5.85119 8.48886 5.5 7.59375 5.5Z" fill="#1D2132"/>
</svg>
