<svg width="94" height="94" viewBox="0 0 94 94" fill="none" xmlns="http://www.w3.org/2000/svg">
<g filter="url(#filter0_d_791_12994)">
<circle cx="47" cy="43" r="32" fill="#EEEEEE"/>
</g>
<path d="M50.9484 31.7953C51.0173 31.4075 51.3545 31.125 51.7483 31.125H58.5117C58.9056 31.125 59.2428 31.4075 59.3117 31.7953L62.4425 49.4063L63.1015 56.9842C63.184 57.9337 62.4356 58.75 61.4826 58.75H48.7775C47.8245 58.75 47.076 57.9337 47.1586 56.9842L47.8175 49.4063L50.9484 31.7953Z" fill="#DF8D12"/>
<path fill-rule="evenodd" clip-rule="evenodd" d="M47.0113 49.2997L50.1485 31.6531C50.2864 30.8775 50.9606 30.3125 51.7484 30.3125H58.5118C59.2995 30.3125 59.9738 30.8775 60.1117 31.6531L63.2489 49.2997L63.911 56.9138C64.0348 58.338 62.9122 59.5625 61.4827 59.5625H48.7775C47.348 59.5625 46.2254 58.338 46.3492 56.9138L47.0113 49.2997ZM51.7484 31.125C51.3545 31.125 51.0174 31.4075 50.9484 31.7953L47.8176 49.4062L47.1586 56.9842C47.0761 57.9337 47.8245 58.75 48.7775 58.75H61.4827C62.4357 58.75 63.1841 57.9337 63.1015 56.9842L62.4426 49.4062L59.3118 31.7953C59.2428 31.4075 58.9057 31.125 58.5118 31.125H51.7484Z" fill="#5B3303"/>
<path d="M48.7843 58.75H61.4755C62.431 58.75 63.1803 57.9295 63.0938 56.9779L62.5767 51.2904C62.5006 50.4534 61.7989 49.8125 60.9584 49.8125H49.3014C48.4609 49.8125 47.7591 50.4534 47.683 51.2904L47.166 56.9779C47.0795 57.9295 47.8288 58.75 48.7843 58.75Z" fill="#FFB423"/>
<path d="M47.69 51.2987L47.208 56.9219L59.5986 49.8125H49.3091C48.4654 49.8125 47.762 50.4581 47.69 51.2987Z" fill="#FFC149"/>
<path d="M52.2861 31.9375L49.4424 48.1875L57.9736 31.9375H52.2861Z" fill="#E9981F"/>
<path fill-rule="evenodd" clip-rule="evenodd" d="M51.9467 31.5368C52.168 31.5737 52.3176 31.783 52.2807 32.0043L49.4369 49.0668C49.4 49.2881 49.1907 49.4376 48.9694 49.4007C48.7481 49.3638 48.5986 49.1545 48.6355 48.9332L51.4792 31.8707C51.5161 31.6494 51.7254 31.4999 51.9467 31.5368Z" fill="#FFC351"/>
<path fill-rule="evenodd" clip-rule="evenodd" d="M49.7124 44.943C49.9337 44.9799 50.0832 45.1892 50.0463 45.4105L49.4369 49.0668C49.4 49.2881 49.1907 49.4376 48.9694 49.4007C48.7481 49.3638 48.5986 49.1545 48.6355 48.9332L49.2448 45.277C49.2817 45.0557 49.491 44.9061 49.7124 44.943Z" fill="#FFD991"/>
<path fill-rule="evenodd" clip-rule="evenodd" d="M49.3775 51.0312C49.1662 51.0312 48.9902 51.1932 48.9727 51.4038L48.8316 53.0962C48.813 53.3198 48.6166 53.486 48.393 53.4673C48.1695 53.4487 48.0033 53.2524 48.0219 53.0288L48.163 51.3363C48.2156 50.7046 48.7437 50.2188 49.3775 50.2188H51.0674C51.2918 50.2188 51.4737 50.4006 51.4737 50.625C51.4737 50.8494 51.2918 51.0312 51.0674 51.0312H49.3775Z" fill="#FFFAED"/>
<path d="M59.1924 43.5156C59.1924 43.8522 58.7377 44.125 58.1768 44.125C57.6158 44.125 57.1611 43.8522 57.1611 43.5156C57.1611 43.1791 57.6158 42.9062 58.1768 42.9062C58.7377 42.9062 59.1924 43.1791 59.1924 43.5156Z" fill="#C17707"/>
<path d="M59.5986 40.875C59.5986 41.0994 59.2349 41.2812 58.7861 41.2812C58.3374 41.2812 57.9736 41.0994 57.9736 40.875C57.9736 40.6506 58.3374 40.4688 58.7861 40.4688C59.2349 40.4688 59.5986 40.6506 59.5986 40.875Z" fill="#C17707"/>
<path d="M58.3799 38.8437C58.3799 39.0681 58.0161 39.25 57.5674 39.25C57.1187 39.25 56.7549 39.0681 56.7549 38.8437C56.7549 38.6194 57.1187 38.4375 57.5674 38.4375C58.0161 38.4375 58.3799 38.6194 58.3799 38.8437Z" fill="#C17707"/>
<path d="M58.7861 36.2031C58.7861 36.3153 58.6042 36.4062 58.3799 36.4062C58.1555 36.4062 57.9736 36.3153 57.9736 36.2031C57.9736 36.0909 58.1555 36 58.3799 36C58.6042 36 58.7861 36.0909 58.7861 36.2031Z" fill="#C17707"/>
<path d="M59.5986 37.8281C59.5986 37.9403 59.4167 38.0312 59.1924 38.0312C58.968 38.0312 58.7861 37.9403 58.7861 37.8281C58.7861 37.7159 58.968 37.625 59.1924 37.625C59.4167 37.625 59.5986 37.7159 59.5986 37.8281Z" fill="#C17707"/>
<path d="M57.5674 40.2656C57.5674 40.3778 57.3855 40.4687 57.1611 40.4687C56.9368 40.4687 56.7549 40.3778 56.7549 40.2656C56.7549 40.1534 56.9368 40.0625 57.1611 40.0625C57.3855 40.0625 57.5674 40.1534 57.5674 40.2656Z" fill="#C17707"/>
<path d="M60.0049 42.2969C60.0049 42.4091 59.823 42.5 59.5986 42.5C59.3743 42.5 59.1924 42.4091 59.1924 42.2969C59.1924 42.1847 59.3743 42.0938 59.5986 42.0938C59.823 42.0938 60.0049 42.1847 60.0049 42.2969Z" fill="#C17707"/>
<path d="M57.9736 41.8906C57.9736 42.0028 57.7917 42.0937 57.5674 42.0937C57.343 42.0937 57.1611 42.0028 57.1611 41.8906C57.1611 41.7784 57.343 41.6875 57.5674 41.6875C57.7917 41.6875 57.9736 41.7784 57.9736 41.8906Z" fill="#C17707"/>
<path d="M60.8174 45.3437C60.8174 45.5681 60.4536 45.75 60.0049 45.75C59.5562 45.75 59.1924 45.5681 59.1924 45.3437C59.1924 45.1194 59.5562 44.9375 60.0049 44.9375C60.4536 44.9375 60.8174 45.1194 60.8174 45.3437Z" fill="#C17707"/>
<path d="M61.2236 57.7344C61.2236 58.0709 60.9508 58.3438 60.6143 58.3438C60.2777 58.3438 60.0049 58.0709 60.0049 57.7344C60.0049 57.3978 60.2777 57.125 60.6143 57.125C60.9508 57.125 61.2236 57.3978 61.2236 57.7344Z" fill="#FFC24B"/>
<path d="M62.4424 56.7187C62.4424 56.9431 62.2605 57.125 62.0361 57.125C61.8118 57.125 61.6299 56.9431 61.6299 56.7187C61.6299 56.4944 61.8118 56.3125 62.0361 56.3125C62.2605 56.3125 62.4424 56.4944 62.4424 56.7187Z" fill="#FFC24B"/>
<path d="M58.7861 57.9375C58.7861 58.1619 58.968 58.3437 59.1924 58.3437C59.4167 58.3437 59.5986 58.1619 59.5986 57.9375C59.5986 57.7131 59.4167 57.5312 59.1924 57.5312C58.968 57.5312 58.7861 57.7131 58.7861 57.9375Z" fill="#FFC24B"/>
<path d="M60.4111 55.9062C60.4111 56.1306 60.593 56.3125 60.8174 56.3125C61.0417 56.3125 61.2236 56.1306 61.2236 55.9062C61.2236 55.6819 61.0417 55.5 60.8174 55.5C60.593 55.5 60.4111 55.6819 60.4111 55.9062Z" fill="#FFC24B"/>
<path d="M58.7861 56.5156C58.7861 56.8522 59.059 57.125 59.3955 57.125C59.7321 57.125 60.0049 56.8522 60.0049 56.5156C60.0049 56.1791 59.7321 55.9062 59.3955 55.9062C59.059 55.9062 58.7861 56.1791 58.7861 56.5156Z" fill="#FFC24B"/>
<path d="M56.7549 57.5312C56.7549 57.7556 56.9368 57.9375 57.1611 57.9375C57.3855 57.9375 57.5674 57.7556 57.5674 57.5312C57.5674 57.3069 57.3855 57.125 57.1611 57.125C56.9368 57.125 56.7549 57.3069 56.7549 57.5312Z" fill="#FFC24B"/>
<path d="M61.6299 54.6875C61.6299 54.9119 61.8118 55.0937 62.0361 55.0937C62.2605 55.0937 62.4424 54.9119 62.4424 54.6875C62.4424 54.4631 62.2605 54.2812 62.0361 54.2812C61.8118 54.2812 61.6299 54.4631 61.6299 54.6875Z" fill="#FFC24B"/>
<path d="M33.7872 31.7953C33.8562 31.4075 34.1933 31.125 34.5872 31.125H41.3506C41.7445 31.125 42.0816 31.4075 42.1506 31.7953L45.2814 49.4063L45.9404 56.9842C46.0229 57.9337 45.2745 58.75 44.3215 58.75H31.6163C30.6633 58.75 29.9149 57.9337 29.9974 56.9842L30.6564 49.4063L33.7872 31.7953Z" fill="#FCB326"/>
<path fill-rule="evenodd" clip-rule="evenodd" d="M29.8502 49.2997L32.9873 31.6531C33.1252 30.8775 33.7995 30.3125 34.5873 30.3125H41.3507C42.1384 30.3125 42.8127 30.8775 42.9506 31.6531L46.0878 49.2997L46.7499 56.9138C46.8737 58.338 45.751 59.5625 44.3215 59.5625H31.6164C30.1869 59.5625 29.0642 58.338 29.1881 56.9138L29.8502 49.2997ZM34.5873 31.125C34.1934 31.125 33.8562 31.4075 33.7873 31.7953L30.6565 49.4062L29.9975 56.9842C29.9149 57.9337 30.6634 58.75 31.6164 58.75H44.3215C45.2745 58.75 46.023 57.9337 45.9404 56.9842L45.2815 49.4062L42.1506 31.7953C42.0817 31.4075 41.7445 31.125 41.3507 31.125H34.5873Z" fill="#5B3303"/>
<path d="M31.6232 58.75H44.3143C45.2699 58.75 46.0192 57.9295 45.9326 56.9779L45.4156 51.2904C45.3395 50.4534 44.6377 49.8125 43.7973 49.8125H32.1402C31.2998 49.8125 30.598 50.4534 30.5219 51.2904L30.0049 56.9779C29.9183 57.9295 30.6676 58.75 31.6232 58.75Z" fill="#FFB423"/>
<path d="M35.125 31.9375L32.2812 48.1875L40.8125 31.9375H35.125Z" fill="#FFC555"/>
<path fill-rule="evenodd" clip-rule="evenodd" d="M34.7856 31.5368C35.0069 31.5737 35.1564 31.783 35.1195 32.0043L32.2758 49.0668C32.2389 49.2881 32.0296 49.4376 31.8083 49.4007C31.587 49.3638 31.4375 49.1545 31.4743 48.9332L34.3181 31.8707C34.355 31.6494 34.5643 31.4999 34.7856 31.5368Z" fill="#FFD179"/>
<path fill-rule="evenodd" clip-rule="evenodd" d="M32.5512 44.943C32.7725 44.9799 32.922 45.1892 32.8852 45.4105L32.2758 49.0668C32.2389 49.2881 32.0296 49.4376 31.8083 49.4007C31.587 49.3638 31.4375 49.1545 31.4743 48.9332L32.0837 45.277C32.1206 45.0557 32.3299 44.9061 32.5512 44.943Z" fill="#FFECC9"/>
<path d="M30.5289 51.2987L30.0469 56.9219L42.4375 49.8125H32.1479C31.3043 49.8125 30.6009 50.4581 30.5289 51.2987Z" fill="#FFC149"/>
<path fill-rule="evenodd" clip-rule="evenodd" d="M32.2064 51.0312C31.9972 51.0312 31.8222 51.1901 31.8021 51.3984L31.2638 56.961C31.2422 57.1843 31.0436 57.3478 30.8203 57.3262C30.5969 57.3046 30.4334 57.1061 30.455 56.8827L30.9934 51.3201C31.0538 50.6954 31.5788 50.2188 32.2064 50.2188H43.25C43.4744 50.2188 43.6563 50.4006 43.6563 50.625C43.6563 50.8494 43.4744 51.0312 43.25 51.0312H32.2064Z" fill="#FFE4A0"/>
<path fill-rule="evenodd" clip-rule="evenodd" d="M32.2164 51.0312C32.0051 51.0312 31.8291 51.1932 31.8115 51.4038L31.6705 53.0962C31.6519 53.3198 31.4555 53.486 31.2319 53.4673C31.0083 53.4487 30.8422 53.2524 30.8608 53.0288L31.0018 51.3363C31.0545 50.7046 31.5825 50.2188 32.2164 50.2188H33.9063C34.1306 50.2188 34.3125 50.4006 34.3125 50.625C34.3125 50.8494 34.1306 51.0312 33.9063 51.0312H32.2164Z" fill="#FFFAED"/>
<path d="M44.0625 57.7344C44.0625 58.0709 43.7897 58.3438 43.4531 58.3438C43.1166 58.3438 42.8438 58.0709 42.8438 57.7344C42.8438 57.3978 43.1166 57.125 43.4531 57.125C43.7897 57.125 44.0625 57.3978 44.0625 57.7344Z" fill="#FFC24B"/>
<path d="M45.2812 56.7187C45.2812 56.9431 45.0994 57.125 44.875 57.125C44.6506 57.125 44.4688 56.9431 44.4688 56.7187C44.4688 56.4944 44.6506 56.3125 44.875 56.3125C45.0994 56.3125 45.2812 56.4944 45.2812 56.7187Z" fill="#FFC24B"/>
<path d="M41.625 57.9375C41.625 58.1619 41.8069 58.3437 42.0313 58.3437C42.2556 58.3437 42.4375 58.1619 42.4375 57.9375C42.4375 57.7131 42.2556 57.5312 42.0313 57.5312C41.8069 57.5312 41.625 57.7131 41.625 57.9375Z" fill="#FFC24B"/>
<path d="M43.25 55.9062C43.25 56.1306 43.4319 56.3125 43.6563 56.3125C43.8806 56.3125 44.0625 56.1306 44.0625 55.9062C44.0625 55.6819 43.8806 55.5 43.6563 55.5C43.4319 55.5 43.25 55.6819 43.25 55.9062Z" fill="#FFC24B"/>
<path d="M41.625 56.5156C41.625 56.8522 41.8978 57.125 42.2344 57.125C42.5709 57.125 42.8438 56.8522 42.8438 56.5156C42.8438 56.1791 42.5709 55.9062 42.2344 55.9062C41.8978 55.9062 41.625 56.1791 41.625 56.5156Z" fill="#FFC24B"/>
<path d="M39.5938 57.5312C39.5938 57.7556 39.7756 57.9375 40 57.9375C40.2244 57.9375 40.4062 57.7556 40.4062 57.5312C40.4062 57.3069 40.2244 57.125 40 57.125C39.7756 57.125 39.5938 57.3069 39.5938 57.5312Z" fill="#FFC24B"/>
<path d="M44.4688 54.6875C44.4688 54.9119 44.6506 55.0937 44.875 55.0937C45.0994 55.0937 45.2812 54.9119 45.2812 54.6875C45.2812 54.4631 45.0994 54.2812 44.875 54.2812C44.6506 54.2812 44.4688 54.4631 44.4688 54.6875Z" fill="#FFC24B"/>
<path d="M42.3683 26.9203C42.4372 26.5325 42.7744 26.25 43.1682 26.25H49.9317C50.3255 26.25 50.6627 26.5325 50.7316 26.9203L53.8625 44.5313L54.5214 52.1092C54.604 53.0587 53.8555 53.875 52.9025 53.875H40.1974C39.2444 53.875 38.4959 53.0587 38.5785 52.1092L39.2375 44.5313L42.3683 26.9203Z" fill="#FCB326"/>
<path fill-rule="evenodd" clip-rule="evenodd" d="M38.4312 44.4247L41.5684 26.7781C41.7063 26.0025 42.3806 25.4375 43.1683 25.4375H49.9317C50.7195 25.4375 51.3937 26.0025 51.5316 26.7781L54.6688 44.4247L55.3309 52.0388C55.4548 53.463 54.3321 54.6875 52.9026 54.6875H40.1974C38.7679 54.6875 37.6453 53.463 37.7691 52.0388L38.4312 44.4247ZM43.1683 26.25C42.7744 26.25 42.4373 26.5325 42.3683 26.9203L39.2375 44.5312L38.5786 52.1092C38.496 53.0587 39.2444 53.875 40.1974 53.875H52.9026C53.8556 53.875 54.604 53.0587 54.5215 52.1092L53.8625 44.5312L50.7317 26.9203C50.6627 26.5325 50.3256 26.25 49.9317 26.25H43.1683Z" fill="#5B3303"/>
<path d="M40.2042 53.875H52.8954C53.8509 53.875 54.6002 53.0545 54.5137 52.1029L53.9967 46.4154C53.9206 45.5784 53.2188 44.9375 52.3783 44.9375H40.7213C39.8808 44.9375 39.179 45.5784 39.103 46.4154L38.5859 52.1029C38.4994 53.0545 39.2487 53.875 40.2042 53.875Z" fill="#FFCF23"/>
<path d="M43.7061 27.0625L40.8623 43.3125L49.3936 27.0625H43.7061Z" fill="#FFC555"/>
<path fill-rule="evenodd" clip-rule="evenodd" d="M43.3667 26.6618C43.588 26.6987 43.7375 26.908 43.7006 27.1293L40.8568 44.1918C40.82 44.4131 40.6106 44.5626 40.3893 44.5257C40.168 44.4888 40.0185 44.2795 40.0554 44.0582L42.8991 26.9957C42.936 26.7744 43.1453 26.6249 43.3667 26.6618Z" fill="#FFD179"/>
<path fill-rule="evenodd" clip-rule="evenodd" d="M41.1323 40.068C41.3536 40.1049 41.5031 40.3142 41.4662 40.5355L40.8568 44.1918C40.82 44.4131 40.6106 44.5626 40.3893 44.5257C40.168 44.4888 40.0185 44.2795 40.0554 44.0582L40.6648 40.402C40.7017 40.1807 40.911 40.0311 41.1323 40.068Z" fill="#FFECC9"/>
<path d="M39.1099 46.4237L38.6279 52.0469L51.0186 44.9375H40.729C39.8853 44.9375 39.182 45.5831 39.1099 46.4237Z" fill="#FFDD65"/>
<path fill-rule="evenodd" clip-rule="evenodd" d="M40.7875 46.1562C40.5783 46.1562 40.4033 46.3151 40.3831 46.5234L39.8448 52.086C39.8232 52.3093 39.6246 52.4728 39.4013 52.4512C39.178 52.4296 39.0145 52.2311 39.0361 52.0077L39.5744 46.4451C39.6349 45.8204 40.1599 45.3438 40.7875 45.3438H51.8311C52.0554 45.3438 52.2373 45.5256 52.2373 45.75C52.2373 45.9744 52.0554 46.1562 51.8311 46.1562H40.7875Z" fill="#FFF5A0"/>
<path fill-rule="evenodd" clip-rule="evenodd" d="M40.7974 46.1562C40.5862 46.1562 40.4101 46.3182 40.3926 46.5288L40.2515 48.2212C40.2329 48.4448 40.0366 48.611 39.813 48.5923C39.5894 48.5737 39.4232 48.3774 39.4419 48.1538L39.5829 46.4613C39.6355 45.8296 40.1636 45.3438 40.7974 45.3438H42.4873C42.7117 45.3438 42.8936 45.5256 42.8936 45.75C42.8936 45.9744 42.7117 46.1562 42.4873 46.1562H40.7974Z" fill="#FFFAED"/>
<path d="M50.6123 38.6406C50.6123 38.9772 50.1576 39.25 49.5967 39.25C49.0358 39.25 48.5811 38.9772 48.5811 38.6406C48.5811 38.3041 49.0358 38.0312 49.5967 38.0312C50.1576 38.0312 50.6123 38.3041 50.6123 38.6406Z" fill="#C48714"/>
<path d="M51.0186 36C51.0186 36.2244 50.6548 36.4062 50.2061 36.4062C49.7573 36.4062 49.3936 36.2244 49.3936 36C49.3936 35.7756 49.7573 35.5938 50.2061 35.5938C50.6548 35.5938 51.0186 35.7756 51.0186 36Z" fill="#C48714"/>
<path d="M49.7998 33.9687C49.7998 34.1931 49.436 34.375 48.9873 34.375C48.5386 34.375 48.1748 34.1931 48.1748 33.9687C48.1748 33.7444 48.5386 33.5625 48.9873 33.5625C49.436 33.5625 49.7998 33.7444 49.7998 33.9687Z" fill="#C48714"/>
<path d="M50.2061 31.3281C50.2061 31.4403 50.0242 31.5312 49.7998 31.5312C49.5754 31.5312 49.3936 31.4403 49.3936 31.3281C49.3936 31.2159 49.5754 31.125 49.7998 31.125C50.0242 31.125 50.2061 31.2159 50.2061 31.3281Z" fill="#C48714"/>
<path d="M51.0186 32.9531C51.0186 33.0653 50.8367 33.1562 50.6123 33.1562C50.3879 33.1562 50.2061 33.0653 50.2061 32.9531C50.2061 32.8409 50.3879 32.75 50.6123 32.75C50.8367 32.75 51.0186 32.8409 51.0186 32.9531Z" fill="#C48714"/>
<path d="M48.9873 35.3906C48.9873 35.5028 48.8054 35.5937 48.5811 35.5937C48.3567 35.5937 48.1748 35.5028 48.1748 35.3906C48.1748 35.2784 48.3567 35.1875 48.5811 35.1875C48.8054 35.1875 48.9873 35.2784 48.9873 35.3906Z" fill="#C48714"/>
<path d="M51.4248 37.4219C51.4248 37.5341 51.2429 37.625 51.0186 37.625C50.7942 37.625 50.6123 37.5341 50.6123 37.4219C50.6123 37.3097 50.7942 37.2188 51.0186 37.2188C51.2429 37.2188 51.4248 37.3097 51.4248 37.4219Z" fill="#C48714"/>
<path d="M49.3936 37.0156C49.3936 37.1278 49.2117 37.2187 48.9873 37.2187C48.7629 37.2187 48.5811 37.1278 48.5811 37.0156C48.5811 36.9034 48.7629 36.8125 48.9873 36.8125C49.2117 36.8125 49.3936 36.9034 49.3936 37.0156Z" fill="#C48714"/>
<path d="M52.2373 40.4687C52.2373 40.6931 51.8735 40.875 51.4248 40.875C50.9761 40.875 50.6123 40.6931 50.6123 40.4687C50.6123 40.2444 50.9761 40.0625 51.4248 40.0625C51.8735 40.0625 52.2373 40.2444 52.2373 40.4687Z" fill="#C48714"/>
<path d="M52.6436 52.8594C52.6436 53.1959 52.3707 53.4688 52.0342 53.4688C51.6976 53.4688 51.4248 53.1959 51.4248 52.8594C51.4248 52.5228 51.6976 52.25 52.0342 52.25C52.3707 52.25 52.6436 52.5228 52.6436 52.8594Z" fill="#FFDC81"/>
<path d="M53.8623 51.8437C53.8623 52.0681 53.6804 52.25 53.4561 52.25C53.2317 52.25 53.0498 52.0681 53.0498 51.8437C53.0498 51.6194 53.2317 51.4375 53.4561 51.4375C53.6804 51.4375 53.8623 51.6194 53.8623 51.8437Z" fill="#FFDC81"/>
<path d="M50.2061 53.0625C50.2061 53.2869 50.3879 53.4687 50.6123 53.4687C50.8367 53.4687 51.0186 53.2869 51.0186 53.0625C51.0186 52.8381 50.8367 52.6562 50.6123 52.6562C50.3879 52.6562 50.2061 52.8381 50.2061 53.0625Z" fill="#FFDC81"/>
<path d="M51.8311 51.0312C51.8311 51.2556 52.0129 51.4375 52.2373 51.4375C52.4617 51.4375 52.6436 51.2556 52.6436 51.0312C52.6436 50.8069 52.4617 50.625 52.2373 50.625C52.0129 50.625 51.8311 50.8069 51.8311 51.0312Z" fill="#FFDC81"/>
<path d="M50.2061 51.6406C50.2061 51.9772 50.4789 52.25 50.8154 52.25C51.152 52.25 51.4248 51.9772 51.4248 51.6406C51.4248 51.3041 51.152 51.0312 50.8154 51.0312C50.4789 51.0312 50.2061 51.3041 50.2061 51.6406Z" fill="#FFDC81"/>
<path d="M48.1748 52.6562C48.1748 52.8806 48.3567 53.0625 48.5811 53.0625C48.8054 53.0625 48.9873 52.8806 48.9873 52.6562C48.9873 52.4319 48.8054 52.25 48.5811 52.25C48.3567 52.25 48.1748 52.4319 48.1748 52.6562Z" fill="#FFDC81"/>
<path d="M53.0498 49.8125C53.0498 50.0369 53.2317 50.2187 53.4561 50.2187C53.6804 50.2187 53.8623 50.0369 53.8623 49.8125C53.8623 49.5881 53.6804 49.4062 53.4561 49.4062C53.2317 49.4062 53.0498 49.5881 53.0498 49.8125Z" fill="#FFDC81"/>
<defs>
<filter id="filter0_d_791_12994" x="0" y="0" width="94" height="94" filterUnits="userSpaceOnUse" color-interpolation-filters="sRGB">
<feFlood flood-opacity="0" result="BackgroundImageFix"/>
<feColorMatrix in="SourceAlpha" type="matrix" values="0 0 0 0 0 0 0 0 0 0 0 0 0 0 0 0 0 0 127 0" result="hardAlpha"/>
<feOffset dy="4"/>
<feGaussianBlur stdDeviation="7.5"/>
<feComposite in2="hardAlpha" operator="out"/>
<feColorMatrix type="matrix" values="0 0 0 0 0 0 0 0 0 0 0 0 0 0 0 0 0 0 0.2 0"/>
<feBlend mode="normal" in2="BackgroundImageFix" result="effect1_dropShadow_791_12994"/>
<feBlend mode="normal" in="SourceGraphic" in2="effect1_dropShadow_791_12994" result="shape"/>
</filter>
</defs>
</svg>
