<svg width="163" height="168" viewBox="0 0 163 168" fill="none" xmlns="http://www.w3.org/2000/svg">
<path fill-rule="evenodd" clip-rule="evenodd" d="M129.001 118.009L126.591 123.732H120.888L132.657 97.3609H137.343L149.258 123.732H143.519L141.109 118.009H129.001ZM130.878 113.52H139.327L135.128 103.495H134.982L130.878 113.52Z" fill="#0C615A"/>
<path fill-rule="evenodd" clip-rule="evenodd" d="M96.4795 123.732V97.3609H106.251C109.23 97.3609 111.749 97.8843 113.807 98.9318C115.865 99.9793 117.415 101.488 118.457 103.458C119.522 105.403 120.055 107.76 120.055 110.528C120.055 113.271 119.522 115.627 118.457 117.597C117.415 119.567 115.865 121.089 113.807 122.161C111.749 123.209 109.23 123.732 106.251 123.732H96.4795ZM102.146 118.944H105.924C108.782 118.944 110.901 118.258 112.281 116.887C113.686 115.49 114.388 113.37 114.388 110.528C114.388 107.66 113.686 105.54 112.281 104.168C110.901 102.797 108.782 102.111 105.924 102.111H102.146V118.944Z" fill="#0C615A"/>
<path fill-rule="evenodd" clip-rule="evenodd" d="M74.1483 106.755V123.732H68.8809V97.3609H73.0946L86.0269 114.293V97.3609H91.2939V123.732H87.0802L74.1483 106.755Z" fill="#0C615A"/>
<path fill-rule="evenodd" clip-rule="evenodd" d="M46.4151 118.009L44.0046 123.732H38.3018L50.0712 97.3609H54.7574L66.6722 123.732H60.9327L58.5222 118.009H46.4151ZM48.292 113.52H56.741L52.5416 103.495H52.3962L48.292 113.52Z" fill="#0C615A"/>
<path fill-rule="evenodd" clip-rule="evenodd" d="M24.8678 109.961L37.4388 123.732H30.5006L19.4211 111.687H19.3482V123.732H13.6816V97.3609H19.3482V108.845H19.4211L29.9193 97.3609H36.6397L24.8678 109.961Z" fill="#0C615A"/>
<path fill-rule="evenodd" clip-rule="evenodd" d="M52.7053 66.6811C51.9195 66.5164 51.1574 66.2255 50.4403 65.8009C46.1801 63.2761 45.1176 56.965 48.0693 51.7172C51.0206 46.4694 56.8763 44.2583 61.1366 46.7837C62.0542 47.3272 62.8235 48.0468 63.4363 48.8936C62.1919 49.8795 61.014 51.0145 59.9132 52.3142C56.6825 56.1278 54.2286 61.2196 52.7053 66.6811ZM99.7014 49.1127C100.337 48.1708 101.159 47.3738 102.154 46.7837C106.415 44.2583 112.27 46.4694 115.222 51.7172C118.174 56.9655 117.111 63.2761 112.851 65.8009C112.011 66.2982 111.109 66.612 110.181 66.7548C108.658 61.2654 106.197 56.1448 102.952 52.3142C101.932 51.1097 100.845 50.0465 99.7014 49.1127Z" fill="#0C615A"/>
<path d="M93.0908 70.5395C89.3752 70.5349 86.5937 68.7402 85.4666 65.9912C84.951 64.7331 84.9064 63.4302 85.0793 62.1071C85.275 60.6043 85.7024 59.1796 86.5893 57.928C87.8265 56.1744 89.5664 55.4905 91.6005 56.1429C93.7143 56.8213 95.747 57.7381 97.5957 59.0049C100.8 61.2013 100.615 64.6736 99.0388 67.1051C97.5231 69.4461 95.2586 70.4709 93.0908 70.5395Z" fill="#0C615A"/>
<path d="M70.7166 70.5393C67.6521 70.3787 65.2085 69.149 63.8402 66.2861C62.8834 64.2859 62.8321 62.2382 64.2592 60.3836C64.7 59.8263 65.2227 59.3405 65.8101 58.9429C67.6102 57.7018 69.5984 56.8202 71.6645 56.1504C73.6892 55.4972 75.4818 56.134 76.6708 57.9035C78.117 60.056 78.63 62.467 78.0988 65.0083C77.5127 67.809 74.9456 70.0228 72.0451 70.4098C71.6066 70.4711 71.1645 70.4977 70.7166 70.5393Z" fill="#0C615A"/>
<path d="M41.5253 81.433C42.7994 86.3141 48.458 88.9986 54.164 87.4292C59.8701 85.8597 63.4629 80.6306 62.1888 75.7495C60.9147 70.8684 55.2561 68.1838 49.5501 69.7533C43.844 71.3227 40.2512 76.5519 41.5253 81.433Z" fill="#0C615A"/>
<path d="M121.465 81.4328C120.191 86.3139 114.532 88.9985 108.826 87.429C103.12 85.8596 99.5273 80.6304 100.801 75.7493C102.076 70.8682 107.734 68.1836 113.44 69.7531C119.146 71.3225 122.739 76.5517 121.465 81.4328Z" fill="#0C615A"/>
</svg>
