<svg width="220" height="226" viewBox="0 0 220 226" fill="none" xmlns="http://www.w3.org/2000/svg">
<path fill-rule="evenodd" clip-rule="evenodd" d="M174.111 158.75L170.858 166.449H163.16L179.045 130.974H185.37L201.452 166.449H193.705L190.452 158.75H174.111ZM176.644 152.712H188.047L182.38 139.226H182.183L176.644 152.712Z" fill="white"/>
<path fill-rule="evenodd" clip-rule="evenodd" d="M130.219 166.449V130.974H143.407C147.428 130.974 150.827 131.678 153.605 133.087C156.384 134.496 158.476 136.526 159.881 139.176C161.319 141.792 162.038 144.962 162.038 148.686C162.038 152.376 161.319 155.546 159.881 158.197C158.476 160.847 156.384 162.893 153.605 164.336C150.827 165.745 147.428 166.449 143.407 166.449H130.219ZM137.867 160.008H142.966C146.823 160.008 149.683 159.086 151.546 157.24C153.442 155.362 154.39 152.51 154.39 148.686C154.39 144.828 153.442 141.977 151.546 140.131C149.683 138.287 146.823 137.364 142.966 137.364H137.867V160.008Z" fill="white"/>
<path fill-rule="evenodd" clip-rule="evenodd" d="M100.077 143.611V166.449H92.9678V130.974H98.655L116.11 153.752V130.974H123.219V166.449H117.531L100.077 143.611Z" fill="white"/>
<path fill-rule="evenodd" clip-rule="evenodd" d="M62.6459 158.75L59.3924 166.449H51.6953L67.5804 130.974H73.9054L89.9867 166.449H82.2402L78.9867 158.75H62.6459ZM65.1791 152.712H76.5827L70.9147 139.226H70.7184L65.1791 152.712Z" fill="white"/>
<path fill-rule="evenodd" clip-rule="evenodd" d="M33.5637 147.923L50.5307 166.449H41.1662L26.2124 150.246H26.114V166.449H18.4658V130.974H26.114V146.422H26.2124L40.3817 130.974H49.4521L33.5637 147.923Z" fill="white"/>
<path fill-rule="evenodd" clip-rule="evenodd" d="M71.1353 89.702C70.0748 89.4804 69.0462 89.089 68.0783 88.5179C62.3283 85.1214 60.8943 76.6315 64.8782 69.5719C68.8615 62.5124 76.765 59.538 82.515 62.9352C83.7535 63.6663 84.7918 64.6344 85.6189 65.7735C83.9394 67.0998 82.3496 68.6266 80.8638 70.3751C76.5033 75.5053 73.1913 82.355 71.1353 89.702ZM134.566 66.0683C135.424 64.8012 136.533 63.7291 137.877 62.9352C143.627 59.538 151.53 62.5124 155.514 69.5719C159.498 76.6321 158.064 85.1214 152.313 88.5179C151.18 89.1869 149.963 89.609 148.709 89.8011C146.655 82.4165 143.333 75.5281 138.953 70.3751C137.576 68.7547 136.11 67.3244 134.566 66.0683Z" fill="white"/>
<path d="M125.643 94.8924C120.628 94.8863 116.874 92.472 115.353 88.7738C114.657 87.0814 114.597 85.3287 114.83 83.5489C115.094 81.5272 115.671 79.6107 116.868 77.9269C118.538 75.568 120.886 74.6479 123.631 75.5255C126.484 76.4382 129.228 77.6715 131.723 79.3756C136.048 82.3303 135.798 87.0014 133.671 90.2724C131.625 93.4216 128.569 94.8001 125.643 94.8924Z" fill="white"/>
<path d="M95.4445 94.8922C91.3084 94.6762 88.0102 93.0219 86.1635 89.1705C84.872 86.4799 84.8029 83.7252 86.7289 81.2303C87.3239 80.4807 88.0295 79.8271 88.8223 79.2923C91.2518 77.6226 93.9352 76.4367 96.7239 75.5357C99.4566 74.6569 101.876 75.5136 103.481 77.894C105.433 80.7896 106.125 84.0329 105.408 87.4517C104.617 91.2193 101.152 94.1974 97.2376 94.718C96.6457 94.8005 96.049 94.8362 95.4445 94.8922Z" fill="white"/>
<path d="M56.0465 109.547C57.7662 116.113 65.4035 119.724 73.105 117.613C80.8065 115.502 85.6557 108.467 83.936 101.901C82.2163 95.3349 74.579 91.7235 66.8775 93.8348C59.1761 95.9461 54.3269 102.981 56.0465 109.547Z" fill="white"/>
<path d="M163.939 109.547C162.219 116.113 154.582 119.724 146.88 117.613C139.179 115.502 134.33 108.467 136.049 101.901C137.769 95.3347 145.406 91.7233 153.108 93.8345C160.809 95.9458 165.658 102.98 163.939 109.547Z" fill="white"/>
</svg>
